<svg width="29" height="28" viewBox="0 0 29 28" fill="none" xmlns="http://www.w3.org/2000/svg">
<path d="M26.0317 8.1083C25.285 5.57664 23.1733 3.46497 20.6417 2.7183C18.7167 2.1583 17.3867 2.20497 16.465 2.8933C15.3567 3.72164 15.2283 5.21497 15.2283 6.27664V9.18164C15.2283 12.0516 16.535 13.51 19.1017 13.51H22.45C23.5 13.51 25.005 13.3816 25.8333 12.2733C26.545 11.3633 26.6033 10.0333 26.0317 8.1083Z" fill="#A67C00"/>
<path d="M22.8117 15.5866C22.5083 15.2366 22.065 15.0383 21.61 15.0383H17.4333C15.38 15.0383 13.7117 13.3699 13.7117 11.3166V7.13993C13.7117 6.68493 13.5133 6.2416 13.1633 5.93826C12.825 5.63493 12.3583 5.49493 11.915 5.55326C9.17334 5.90326 6.65334 7.40826 5.00834 9.6716C3.35167 11.9466 2.745 14.7233 3.27 17.4999C4.02834 21.5133 7.23667 24.7216 11.2617 25.4799C11.9033 25.6083 12.545 25.6666 13.1867 25.6666C15.2983 25.6666 17.34 25.0133 19.0783 23.7416C21.3417 22.0966 22.8467 19.5766 23.1967 16.8349C23.255 16.3799 23.115 15.9249 22.8117 15.5866Z" fill="#A67C00"/>
</svg>
