<svg width="18" height="18" viewBox="0 0 18 18" fill="none" xmlns="http://www.w3.org/2000/svg">
<path d="M4.83325 7.056C4.83325 6.46655 5.06741 5.90125 5.48421 5.48445C5.90101 5.06765 6.46631 4.8335 7.05575 4.8335H14.2774C14.5693 4.8335 14.8583 4.89098 15.1279 5.00267C15.3976 5.11437 15.6426 5.27807 15.849 5.48445C16.0553 5.69083 16.2191 5.93584 16.3307 6.20548C16.4424 6.47513 16.4999 6.76413 16.4999 7.056V14.2777C16.4999 14.5695 16.4424 14.8585 16.3307 15.1282C16.2191 15.3978 16.0553 15.6428 15.849 15.8492C15.6426 16.0556 15.3976 16.2193 15.1279 16.331C14.8583 16.4427 14.5693 16.5002 14.2774 16.5002H7.05575C6.76389 16.5002 6.47488 16.4427 6.20524 16.331C5.93559 16.2193 5.69059 16.0556 5.48421 15.8492C5.27783 15.6428 5.11412 15.3978 5.00243 15.1282C4.89074 14.8585 4.83325 14.5695 4.83325 14.2777V7.056Z" stroke="#C4C4C4" stroke-width="1.5" stroke-linecap="round" stroke-linejoin="round"/>
<path d="M2.34333 12.9475C2.0875 12.8021 1.87471 12.5916 1.72658 12.3374C1.57846 12.0832 1.50028 11.7942 1.5 11.5V3.16667C1.5 2.25 2.25 1.5 3.16667 1.5H11.5C12.125 1.5 12.465 1.82083 12.75 2.33333" stroke="#C4C4C4" stroke-width="1.5" stroke-linecap="round" stroke-linejoin="round"/>
</svg>
