<svg width="20" height="21" viewBox="0 0 20 21" fill="none" xmlns="http://www.w3.org/2000/svg">
<path d="M4.61666 16.7676C4.10832 16.7676 3.63332 16.5926 3.29166 16.2676C2.85832 15.8593 2.64999 15.2426 2.72499 14.5759L3.03332 11.8759C3.09166 11.3676 3.39999 10.6926 3.75832 10.3259L10.6 3.08427C12.3083 1.27594 14.0917 1.22594 15.9 2.93427C17.7083 4.6426 17.7583 6.42594 16.05 8.23427L9.20832 15.4759C8.85832 15.8509 8.20832 16.2009 7.69999 16.2843L5.01666 16.7426C4.87499 16.7509 4.74999 16.7676 4.61666 16.7676ZM13.275 2.92594C12.6333 2.92594 12.075 3.32594 11.5083 3.92594L4.66666 11.1759C4.49999 11.3509 4.30832 11.7676 4.27499 12.0093L3.96666 14.7093C3.93332 14.9843 3.99999 15.2093 4.14999 15.3509C4.29999 15.4926 4.52499 15.5426 4.79999 15.5009L7.48332 15.0426C7.72499 15.0009 8.12499 14.7843 8.29166 14.6093L15.1333 7.3676C16.1667 6.2676 16.5417 5.25094 15.0333 3.83427C14.3667 3.1926 13.7917 2.92594 13.275 2.92594Z" fill="#212121"/>
<path d="M14.4502 9.62406C14.4335 9.62406 14.4085 9.62406 14.3919 9.62406C11.7919 9.36573 9.7002 7.39073 9.3002 4.80739C9.2502 4.46573 9.48353 4.14906 9.8252 4.09073C10.1669 4.04073 10.4835 4.27406 10.5419 4.61573C10.8585 6.63239 12.4919 8.18239 14.5252 8.38239C14.8669 8.41573 15.1169 8.72406 15.0835 9.06573C15.0419 9.38239 14.7669 9.62406 14.4502 9.62406Z" fill="#212121"/>
<path d="M17.5 19.459H2.5C2.15833 19.459 1.875 19.1757 1.875 18.834C1.875 18.4923 2.15833 18.209 2.5 18.209H17.5C17.8417 18.209 18.125 18.4923 18.125 18.834C18.125 19.1757 17.8417 19.459 17.5 19.459Z" fill="#212121"/>
</svg>
