<svg width="80" height="80" viewBox="0 0 80 80" fill="none" xmlns="http://www.w3.org/2000/svg">
<path d="M12.0757 71.0716H68.9614C74.9543 71.0716 78.4371 67.5901 78.4371 60.6916V25.4344C78.4371 18.5387 74.9229 15.0901 67.9572 15.0901H35.38C33.1029 15.0901 31.73 14.5201 30.0557 13.1144L28.0129 11.4059C25.8029 9.56443 24.0957 8.92871 20.7814 8.92871H10.8029C4.94429 8.92871 1.56287 12.2773 1.56287 19.0401V60.6916C1.56287 67.623 5.11144 71.0716 12.0757 71.0716ZM6.95287 19.3087C6.95287 15.9944 8.72715 14.3201 11.9086 14.3201H19.4086C21.6186 14.3201 22.9572 14.8544 24.6657 16.3287L26.7086 18.003C28.8843 19.8101 30.6586 20.4801 33.9729 20.4801H67.8571C71.1714 20.4801 73.0471 22.2544 73.0471 25.7373V27.7459H6.95287V19.3087ZM12.1757 65.6801C8.82858 65.6801 6.95287 63.9059 6.95287 60.423V32.803H73.0471V60.4601C73.0471 63.9073 71.1714 65.683 67.8571 65.683L12.1757 65.6801Z" fill="#101010"/>
</svg>
