<svg width="13" height="13" viewBox="0 0 13 13" fill="none" xmlns="http://www.w3.org/2000/svg">
<path d="M1.67951 1.9391L7.96451 1.0416C7.99994 1.03651 8.03605 1.0391 8.07039 1.04917C8.10473 1.05925 8.13651 1.07658 8.16358 1.1C8.19065 1.12342 8.21237 1.15237 8.22728 1.18491C8.24219 1.21745 8.24995 1.2528 8.25001 1.2886V11.7126C8.24994 11.7483 8.2422 11.7836 8.22731 11.8161C8.21243 11.8486 8.19076 11.8776 8.16374 11.901C8.13673 11.9244 8.10502 11.9417 8.07074 11.9518C8.03645 11.962 8.0004 11.9646 7.96501 11.9596L1.67901 11.0621C1.55982 11.0451 1.45076 10.9857 1.37186 10.8948C1.29295 10.8038 1.24951 10.6875 1.24951 10.5671V2.4341C1.24951 2.3137 1.29295 2.19735 1.37186 2.10642C1.45076 2.01548 1.56032 1.95607 1.67951 1.9391ZM2.25001 2.8681V10.1331L7.25001 10.8476V2.1536L2.25001 2.8681ZM8.75001 10.0006H10.25V3.0006H8.75001V2.0006H10.75C10.8826 2.0006 11.0098 2.05327 11.1036 2.14704C11.1973 2.24081 11.25 2.36799 11.25 2.5006V10.5006C11.25 10.6332 11.1973 10.7604 11.1036 10.8541C11.0098 10.9479 10.8826 11.0006 10.75 11.0006H8.75001V10.0006ZM5.35001 6.5006L6.75001 8.5006H5.55001L4.75001 7.3576L3.95001 8.5006H2.75001L4.15001 6.5006L2.75001 4.5006H3.95001L4.75001 5.6436L5.55001 4.5006H6.75001L5.35001 6.5006Z" fill="white"/>
</svg>
