<svg width="80" height="32" viewBox="0 0 80 32" fill="none" xmlns="http://www.w3.org/2000/svg">
<path d="M40.3617 7.88695L36.8671 10.6697C34.1367 12.8439 30.099 11.9695 28.5128 8.86043C26.6762 5.2607 21.7209 4.79037 19.2399 7.98029L18.6763 8.70493L15.5899 10.1078L12.7842 8.98551C9.36049 7.84428 5.60776 9.28434 3.8264 12.4229L1 17.4028V31.4316H79V17.4028L76.0676 11.7553C73.746 7.28399 67.7821 6.29334 64.1396 9.77392C61.1704 12.6112 56.4788 12.5579 53.5748 9.65388L52.4936 8.57264C49.2126 5.29168 43.9915 4.99658 40.3617 7.88695Z" fill="url(#paint0_linear_423_12605)"/>
<path d="M1 17.4029L4.48206 10.9136C5.92108 8.23178 9.36421 7.38389 11.884 9.09084V9.09084C14.1257 10.6094 17.1615 10.1256 18.8201 7.98545L19.0804 7.64954C21.6123 4.38256 26.6962 4.90917 28.5155 8.62051V8.62051C30.0892 11.8309 34.2318 12.7682 37.0288 10.541L40.4028 7.85429C44.0092 4.98259 49.1966 5.27579 52.4564 8.53555L53.5748 9.654C56.4788 12.558 61.1704 12.6113 64.1396 9.77404V9.77404C67.7821 6.29345 73.746 7.2841 76.0676 11.7554L79 17.4029" stroke="#075427" stroke-width="1.1223" stroke-linecap="round"/>
<defs>
<linearGradient id="paint0_linear_423_12605" x1="40" y1="5.89918" x2="40" y2="21.6114" gradientUnits="userSpaceOnUse">
<stop stop-color="#075427" stop-opacity="0.24"/>
<stop offset="1" stop-color="#075427" stop-opacity="0"/>
</linearGradient>
</defs>
</svg>
