<svg width="18" height="18" viewBox="0 0 18 18" fill="none" xmlns="http://www.w3.org/2000/svg">
<path d="M7.10244 11.4595C6.95994 11.4595 6.81744 11.407 6.70494 11.2945C6.08994 10.6795 5.75244 9.86195 5.75244 8.99945C5.75244 7.20695 7.20744 5.75195 8.99994 5.75195C9.86244 5.75195 10.6799 6.08945 11.2949 6.70445C11.3999 6.80945 11.4599 6.95195 11.4599 7.10195C11.4599 7.25195 11.3999 7.39445 11.2949 7.49945L7.49994 11.2945C7.38744 11.407 7.24494 11.4595 7.10244 11.4595ZM8.99994 6.87695C7.82994 6.87695 6.87744 7.82945 6.87744 8.99945C6.87744 9.37445 6.97494 9.73445 7.15494 10.0495L10.0499 7.15445C9.73494 6.97445 9.37494 6.87695 8.99994 6.87695Z" fill="#212121"/>
<path d="M4.19988 13.8819C4.07238 13.8819 3.93738 13.8369 3.83238 13.7469C3.02988 13.0644 2.30988 12.2244 1.69488 11.2494C0.899883 10.0119 0.899883 7.99438 1.69488 6.74938C3.52488 3.88438 6.18738 2.23438 8.99988 2.23438C10.6499 2.23438 12.2774 2.80438 13.7024 3.87688C13.9499 4.06438 14.0024 4.41687 13.8149 4.66438C13.6274 4.91188 13.2749 4.96438 13.0274 4.77688C11.7974 3.84688 10.4024 3.35938 8.99988 3.35938C6.57738 3.35938 4.25988 4.81438 2.63988 7.35688C2.07738 8.23438 2.07738 9.76437 2.63988 10.6419C3.20238 11.5194 3.84738 12.2769 4.55988 12.8919C4.79238 13.0944 4.82238 13.4469 4.61988 13.6869C4.51488 13.8144 4.35738 13.8819 4.19988 13.8819Z" fill="#212121"/>
<path d="M8.99993 15.7646C8.00242 15.7646 7.02742 15.5621 6.08992 15.1646C5.80492 15.0446 5.66992 14.7146 5.78992 14.4296C5.90992 14.1446 6.23992 14.0096 6.52492 14.1296C7.31992 14.4671 8.15242 14.6396 8.99242 14.6396C11.4149 14.6396 13.7324 13.1846 15.3524 10.6421C15.9149 9.76463 15.9149 8.23463 15.3524 7.35713C15.1199 6.98963 14.8649 6.63713 14.5949 6.30713C14.3999 6.06713 14.4374 5.71463 14.6774 5.51213C14.9174 5.31713 15.2699 5.34713 15.4724 5.59463C15.7649 5.95463 16.0499 6.34463 16.3049 6.74963C17.0999 7.98713 17.0999 10.0046 16.3049 11.2496C14.4749 14.1146 11.8124 15.7646 8.99993 15.7646Z" fill="#212121"/>
<path d="M9.51744 12.2023C9.25494 12.2023 9.01494 12.0148 8.96244 11.7448C8.90244 11.4373 9.10494 11.1448 9.41244 11.0923C10.2374 10.9423 10.9274 10.2523 11.0774 9.42727C11.1374 9.11977 11.4299 8.92477 11.7374 8.97727C12.0449 9.03727 12.2474 9.32977 12.1874 9.63727C11.9474 10.9348 10.9124 11.9623 9.62244 12.2023C9.58494 12.1948 9.55494 12.2023 9.51744 12.2023Z" fill="#212121"/>
<path d="M1.50008 17.0616C1.35758 17.0616 1.21508 17.0091 1.10258 16.8966C0.885078 16.6791 0.885078 16.3191 1.10258 16.1016L6.70508 10.4991C6.92258 10.2816 7.28258 10.2816 7.50008 10.4991C7.71758 10.7166 7.71758 11.0766 7.50008 11.2941L1.89758 16.8966C1.78508 17.0091 1.64258 17.0616 1.50008 17.0616Z" fill="#212121"/>
<path d="M10.8975 7.66508C10.755 7.66508 10.6125 7.61258 10.5 7.50008C10.2825 7.28258 10.2825 6.92258 10.5 6.70508L16.1025 1.10258C16.32 0.885078 16.68 0.885078 16.8975 1.10258C17.115 1.32008 17.115 1.68008 16.8975 1.89758L11.295 7.50008C11.1825 7.61258 11.04 7.66508 10.8975 7.66508Z" fill="#212121"/>
</svg>
