<svg width="28" height="28" viewBox="0 0 28 28" fill="none" xmlns="http://www.w3.org/2000/svg">
<path d="M24.3017 9.34518L16.66 3.23185C15.1667 2.04185 12.8333 2.03018 11.3517 3.22018L3.71 9.34518C2.61333 10.2202 1.94833 11.9702 2.18166 13.3468L3.65166 22.1435C3.99 24.1152 5.82166 25.6669 7.81666 25.6669H20.1833C22.155 25.6669 24.0217 24.0802 24.36 22.1318L25.83 13.3352C26.04 11.9702 25.375 10.2202 24.3017 9.34518ZM14.875 21.0002C14.875 21.4785 14.4783 21.8752 14 21.8752C13.5217 21.8752 13.125 21.4785 13.125 21.0002V17.5002C13.125 17.0218 13.5217 16.6252 14 16.6252C14.4783 16.6252 14.875 17.0218 14.875 17.5002V21.0002Z" fill="#A67C00"/>
</svg>
