<svg width="13" height="12" viewBox="0 0 13 12" fill="none" xmlns="http://www.w3.org/2000/svg">
<path fill-rule="evenodd" clip-rule="evenodd" d="M3.344 1H9.1565C9.43146 1 9.70374 1.05417 9.95776 1.15941C10.2118 1.26465 10.4426 1.4189 10.637 1.61335C10.8314 1.8078 10.9856 2.03865 11.0908 2.2927C11.196 2.54675 11.2501 2.81904 11.25 3.094V8.9065C11.25 9.18146 11.1958 9.45374 11.0906 9.70776C10.9854 9.96179 10.8311 10.1926 10.6367 10.387C10.4422 10.5814 10.2114 10.7356 9.9573 10.8408C9.70325 10.946 9.43096 11.0001 9.156 11H3.344C3.06899 11.0001 2.79667 10.9459 2.54258 10.8407C2.2885 10.7355 2.05763 10.5813 1.86317 10.3868C1.66871 10.1924 1.51447 9.9615 1.40926 9.70742C1.30405 9.45333 1.24993 9.18101 1.25 8.906V3.094C1.25027 2.53872 1.47097 2.00625 1.86361 1.61361C2.25625 1.22097 2.78872 1.00026 3.344 1ZM3.344 2C2.7395 2 2.25 2.49 2.25 3.094V8.9065C2.25 9.51 2.74 10 3.344 10H9.1565C9.76 10 10.25 9.51 10.25 8.906V3.094C10.25 2.49 9.76 2 9.156 2H3.344Z" fill="white"/>
<path fill-rule="evenodd" clip-rule="evenodd" d="M8.87 5.46273C8.76434 5.37446 8.63134 5.32557 8.49366 5.32439C8.35599 5.3232 8.22216 5.3698 8.115 5.45623L5.493 7.57973C5.3104 7.72749 5.08341 7.80956 4.84853 7.81273C4.61365 7.81591 4.38453 7.74001 4.198 7.59723L3.5055 7.06723C3.49658 7.06045 3.48554 7.05707 3.47435 7.05772C3.46317 7.05836 3.45258 7.06297 3.4445 7.07073L2.0955 8.36173C2.04866 8.40983 1.9926 8.448 1.93069 8.47397C1.86877 8.49993 1.80226 8.51317 1.73512 8.51287C1.66798 8.51258 1.60159 8.49877 1.53991 8.47226C1.47822 8.44576 1.4225 8.4071 1.37608 8.35859C1.32966 8.31009 1.29348 8.25273 1.26971 8.18994C1.24593 8.12715 1.23504 8.06022 1.23769 7.99313C1.24035 7.92604 1.25648 7.86018 1.28514 7.79946C1.3138 7.73874 1.35439 7.68442 1.4045 7.63973L2.753 6.34823C2.93351 6.17543 3.16987 6.07289 3.41938 6.05914C3.66889 6.04538 3.91509 6.12132 4.1135 6.27323L4.806 6.80323C4.81433 6.80965 4.82457 6.81308 4.83509 6.81299C4.8456 6.8129 4.85578 6.80929 4.864 6.80273L7.485 4.67923C7.77237 4.44673 8.13157 4.32126 8.50121 4.32427C8.87084 4.32728 9.22795 4.45858 9.5115 4.69573L11.0715 6.00223C11.1731 6.08743 11.2368 6.20952 11.2484 6.34164C11.26 6.47376 11.2187 6.60509 11.1335 6.70673C11.0483 6.80837 10.9262 6.87201 10.7941 6.88364C10.662 6.89526 10.5306 6.85393 10.429 6.76873L8.87 5.46273Z" fill="white"/>
<path d="M5.39049 4.32C5.39049 4.53748 5.3041 4.74605 5.15032 4.89983C4.99654 5.05361 4.78797 5.14 4.57049 5.14C4.35301 5.14 4.14444 5.05361 3.99066 4.89983C3.83688 4.74605 3.75049 4.53748 3.75049 4.32C3.75049 4.10252 3.83688 3.89395 3.99066 3.74017C4.14444 3.58639 4.35301 3.5 4.57049 3.5C4.78797 3.5 4.99654 3.58639 5.15032 3.74017C5.3041 3.89395 5.39049 4.10252 5.39049 4.32Z" fill="white"/>
</svg>
