<svg width="20" height="21" viewBox="0 0 20 21" fill="none" xmlns="http://www.w3.org/2000/svg">
<path d="M18.3334 5.50033V7.51699C18.3334 8.83366 17.5 9.66699 16.1834 9.66699H13.3334V3.84199C13.3334 2.91699 14.0917 2.16699 15.0167 2.16699C15.925 2.17533 16.7584 2.54199 17.3584 3.14199C17.9584 3.75032 18.3334 4.58366 18.3334 5.50033Z" stroke="#5E5E5E" stroke-width="1.5" stroke-miterlimit="10" stroke-linecap="round" stroke-linejoin="round"/>
<path d="M1.66663 6.33366V18.0003C1.66663 18.692 2.44996 19.0837 2.99996 18.667L4.42496 17.6003C4.75829 17.3503 5.22496 17.3837 5.52496 17.6837L6.90829 19.0753C7.23329 19.4003 7.76663 19.4003 8.09163 19.0753L9.49163 17.6753C9.78329 17.3837 10.25 17.3503 10.575 17.6003L12 18.667C12.55 19.0753 13.3333 18.6837 13.3333 18.0003V3.83366C13.3333 2.91699 14.0833 2.16699 15 2.16699H5.83329H4.99996C2.49996 2.16699 1.66663 3.65866 1.66663 5.50033V6.33366Z" stroke="#5E5E5E" stroke-width="1.5" stroke-miterlimit="10" stroke-linecap="round" stroke-linejoin="round"/>
<path d="M7.5 11.3418H10" stroke="#5E5E5E" stroke-width="1.5" stroke-linecap="round" stroke-linejoin="round"/>
<path d="M7.5 8.00879H10" stroke="#5E5E5E" stroke-width="1.5" stroke-linecap="round" stroke-linejoin="round"/>
<path d="M4.99634 11.333H5.00382" stroke="#5E5E5E" stroke-width="1.5" stroke-linecap="round" stroke-linejoin="round"/>
<path d="M4.99634 8H5.00382" stroke="#5E5E5E" stroke-width="1.5" stroke-linecap="round" stroke-linejoin="round"/>
</svg>
