<svg width="20" height="21" viewBox="0 0 20 21" fill="none" xmlns="http://www.w3.org/2000/svg">
<path d="M10.1166 6.84961H5.72493C4.17493 6.84961 3.82493 7.62462 3.63327 8.58296L2.92493 11.9579H12.9249L12.2166 8.58296C12.0083 7.62462 11.6666 6.84961 10.1166 6.84961Z" stroke="#5E5E5E" stroke-width="1.5" stroke-linecap="round" stroke-linejoin="round"/>
<path d="M14.1583 17.4659C14.2249 18.1992 13.6416 18.8326 12.8916 18.8326H11.7166C11.0416 18.8326 10.9499 18.5409 10.8249 18.1909L10.6999 17.8159C10.5249 17.3076 10.4083 16.9576 9.50828 16.9576H6.30828C5.40828 16.9576 5.27494 17.3493 5.11661 17.8159L4.99161 18.1909C4.87494 18.5492 4.78327 18.8326 4.09994 18.8326H2.92493C2.17493 18.8326 1.58328 18.1992 1.65828 17.4659L2.00828 13.6575C2.09994 12.7159 2.27494 11.9492 3.9166 11.9492H11.8916C13.5333 11.9492 13.7083 12.7159 13.7999 13.6575L14.1583 17.4659Z" stroke="#5E5E5E" stroke-width="1.5" stroke-linecap="round" stroke-linejoin="round"/>
<path d="M2.91663 10.083H2.29163" stroke="#5E5E5E" stroke-width="1.5" stroke-linecap="round" stroke-linejoin="round"/>
<path d="M13.5416 10.083H12.9166" stroke="#5E5E5E" stroke-width="1.5" stroke-linecap="round" stroke-linejoin="round"/>
<path d="M4.16663 14.458H6.04163" stroke="#5E5E5E" stroke-width="1.5" stroke-linecap="round" stroke-linejoin="round"/>
<path d="M9.79163 14.458H11.6666" stroke="#5E5E5E" stroke-width="1.5" stroke-linecap="round" stroke-linejoin="round"/>
<path d="M15.5916 7.78347C15.8249 7.2418 15.7416 6.50848 15.3083 5.86681C14.8833 5.22514 14.2333 4.86681 13.6416 4.87514" stroke="#5E5E5E" stroke-width="1.5" stroke-linecap="round" stroke-linejoin="round"/>
<path d="M18.1834 8.60864C18.5334 7.35031 18.2834 5.80868 17.3917 4.47534C16.5 3.14201 15.1667 2.32533 13.8667 2.16699" stroke="#5E5E5E" stroke-width="1.5" stroke-linecap="round" stroke-linejoin="round"/>
</svg>
