<svg width="9" height="13" viewBox="0 0 9 13" fill="none" xmlns="http://www.w3.org/2000/svg">
<path d="M4.64493 5.46137L4.61594 5.59387C4.49014 6.1787 4.25831 6.73555 3.93194 7.23687M3.93194 7.23687C4.47208 6.99927 5.0436 6.84064 5.62894 6.76587L5.67643 6.75937M3.93194 7.23687C3.72327 7.3282 3.5186 7.4312 3.31793 7.54587L2.46493 8.03337C2.22743 8.16887 2.17643 8.53037 2.36393 8.74487C2.52993 8.93437 2.80393 8.91387 2.94643 8.70137L3.90144 7.28287L3.93194 7.23687ZM4.64443 5.46137L4.87793 4.39337C4.95893 4.02437 4.59993 3.73537 4.32293 3.94637C4.17443 4.05937 4.11943 4.27887 4.19293 4.46487L4.31593 4.77337C4.41127 5.01304 4.52077 5.24237 4.64443 5.46137ZM4.64443 5.46137C4.91679 5.94645 5.26522 6.38469 5.67643 6.75937M5.67643 6.75937L6.80393 6.61637C7.11993 6.57637 7.34893 6.95187 7.20693 7.27637C7.10343 7.51337 6.84643 7.60087 6.64643 7.46737L6.22094 7.18337C6.02929 7.05557 5.8473 6.91385 5.67643 6.75937Z" stroke="white" stroke-width="0.5"/>
<path d="M2.646 10.75H6.854C7.31813 10.75 7.76324 10.5656 8.09143 10.2374C8.41962 9.90925 8.604 9.46413 8.604 9V6.235C8.60416 5.77093 8.41999 5.3258 8.092 4.9975L5.1075 2.0125C4.94498 1.85 4.75205 1.7211 4.53972 1.63317C4.32739 1.54523 4.09982 1.49998 3.87 1.5H2.646C2.18187 1.5 1.73675 1.68437 1.40856 2.01256C1.08037 2.34075 0.895996 2.78587 0.895996 3.25V9C0.895996 9.46413 1.08037 9.90925 1.40856 10.2374C1.73675 10.5656 2.18187 10.75 2.646 10.75Z" stroke="white" stroke-width="0.5" stroke-linecap="round" stroke-linejoin="round"/>
</svg>
