<svg width="28" height="28" viewBox="0 0 28 28" fill="none" xmlns="http://www.w3.org/2000/svg">
<path d="M18.8883 2.33398H9.11159C4.86492 2.33398 2.33325 4.86565 2.33325 9.11232V18.8773C2.33325 23.1357 4.86492 25.6673 9.11159 25.6673H18.8766C23.1233 25.6673 25.6549 23.1357 25.6549 18.889V9.11232C25.6666 4.86565 23.1349 2.33398 18.8883 2.33398ZM19.8333 20.1257H8.16658C7.68825 20.1257 7.29158 19.729 7.29158 19.2507C7.29158 18.7723 7.68825 18.3757 8.16658 18.3757H19.8333C20.3116 18.3757 20.7083 18.7723 20.7083 19.2507C20.7083 19.729 20.3116 20.1257 19.8333 20.1257ZM19.8333 14.8757H8.16658C7.68825 14.8757 7.29158 14.479 7.29158 14.0007C7.29158 13.5223 7.68825 13.1257 8.16658 13.1257H19.8333C20.3116 13.1257 20.7083 13.5223 20.7083 14.0007C20.7083 14.479 20.3116 14.8757 19.8333 14.8757ZM19.8333 9.62565H8.16658C7.68825 9.62565 7.29158 9.22898 7.29158 8.75065C7.29158 8.27232 7.68825 7.87565 8.16658 7.87565H19.8333C20.3116 7.87565 20.7083 8.27232 20.7083 8.75065C20.7083 9.22898 20.3116 9.62565 19.8333 9.62565Z" fill="#A67C00"/>
</svg>
