<svg width="28" height="28" viewBox="0 0 28 28" fill="none" xmlns="http://www.w3.org/2000/svg">
<path d="M24.5 9.04102H3.5C3.02167 9.04102 2.625 8.64435 2.625 8.16602C2.625 7.68768 3.02167 7.29102 3.5 7.29102H24.5C24.9783 7.29102 25.375 7.68768 25.375 8.16602C25.375 8.64435 24.9783 9.04102 24.5 9.04102Z" fill="#5E5E5E" fill-opacity="0.5"/>
<path d="M24.5 14.875H3.5C3.02167 14.875 2.625 14.4783 2.625 14C2.625 13.5217 3.02167 13.125 3.5 13.125H24.5C24.9783 13.125 25.375 13.5217 25.375 14C25.375 14.4783 24.9783 14.875 24.5 14.875Z" fill="#5E5E5E" fill-opacity="0.5"/>
<path d="M24.5 20.709H3.5C3.02167 20.709 2.625 20.3123 2.625 19.834C2.625 19.3557 3.02167 18.959 3.5 18.959H24.5C24.9783 18.959 25.375 19.3557 25.375 19.834C25.375 20.3123 24.9783 20.709 24.5 20.709Z" fill="#5E5E5E" fill-opacity="0.5"/>
</svg>
