<svg width="21" height="21" viewBox="0 0 21 21" fill="none" xmlns="http://www.w3.org/2000/svg">
<path d="M11.3334 10.2922C11.175 10.2922 11.0167 10.2339 10.8917 10.1089C10.65 9.86719 10.65 9.46719 10.8917 9.22552L17.725 2.39219C17.9667 2.15052 18.3667 2.15052 18.6084 2.39219C18.85 2.63385 18.85 3.03385 18.6084 3.27552L11.775 10.1089C11.65 10.2339 11.4917 10.2922 11.3334 10.2922Z" fill="#212121"/>
<path d="M18.8335 6.79102C18.4918 6.79102 18.2085 6.50768 18.2085 6.16602V2.79102H14.8335C14.4918 2.79102 14.2085 2.50768 14.2085 2.16602C14.2085 1.82435 14.4918 1.54102 14.8335 1.54102H18.8335C19.1752 1.54102 19.4585 1.82435 19.4585 2.16602V6.16602C19.4585 6.50768 19.1752 6.79102 18.8335 6.79102Z" fill="#212121"/>
<path d="M12.9998 19.4577H7.99984C3.47484 19.4577 1.5415 17.5243 1.5415 12.9993V7.99935C1.5415 3.47435 3.47484 1.54102 7.99984 1.54102H9.6665C10.0082 1.54102 10.2915 1.82435 10.2915 2.16602C10.2915 2.50768 10.0082 2.79102 9.6665 2.79102H7.99984C4.15817 2.79102 2.7915 4.15768 2.7915 7.99935V12.9993C2.7915 16.841 4.15817 18.2077 7.99984 18.2077H12.9998C16.8415 18.2077 18.2082 16.841 18.2082 12.9993V11.3327C18.2082 10.991 18.4915 10.7077 18.8332 10.7077C19.1748 10.7077 19.4582 10.991 19.4582 11.3327V12.9993C19.4582 17.5243 17.5248 19.4577 12.9998 19.4577Z" fill="#212121"/>
</svg>
