<svg width="20" height="21" viewBox="0 0 20 21" fill="none" xmlns="http://www.w3.org/2000/svg">
<path d="M18.3333 11.3337V8.00033C18.3333 3.83366 16.6666 2.16699 12.5 2.16699H7.49996C3.33329 2.16699 1.66663 3.83366 1.66663 8.00033V13.0003C1.66663 17.167 3.33329 18.8337 7.49996 18.8337H10.8333" stroke="#5E5E5E" stroke-width="1.5" stroke-linecap="round" stroke-linejoin="round"/>
<path d="M6.10828 12.5748L8.09161 9.9998C8.37495 9.63314 8.89995 9.56648 9.26662 9.84981L10.7916 11.0498C11.1583 11.3331 11.6833 11.2665 11.9666 10.9081L13.8916 8.4248" stroke="#5E5E5E" stroke-width="1.5" stroke-linecap="round" stroke-linejoin="round"/>
<path d="M16.2333 13.6832L16.4666 14.1582C16.5833 14.3915 16.875 14.6082 17.1333 14.6582L17.45 14.7082C18.4 14.8665 18.625 15.5665 17.9416 16.2582L17.65 16.5499C17.4583 16.7499 17.35 17.1332 17.4083 17.3999L17.45 17.5749C17.7083 18.7249 17.1 19.1665 16.1 18.5665L15.8833 18.4415C15.625 18.2915 15.2083 18.2915 14.95 18.4415L14.7333 18.5665C13.725 19.1749 13.1166 18.7249 13.3833 17.5749L13.425 17.3999C13.4833 17.1332 13.375 16.7499 13.1833 16.5499L12.8916 16.2582C12.2083 15.5665 12.4333 14.8665 13.3833 14.7082L13.7 14.6582C13.95 14.6165 14.25 14.3915 14.3666 14.1582L14.6 13.6832C15.05 12.7749 15.7833 12.7749 16.2333 13.6832Z" stroke="#5E5E5E" stroke-width="1.5" stroke-linecap="round" stroke-linejoin="round"/>
</svg>
