<svg width="16" height="16" viewBox="0 0 16 16" fill="none" xmlns="http://www.w3.org/2000/svg">
<path d="M3.83325 8.83328C4.57409 8.90495 5.01325 9.28578 5.62992 9.71412C6.92866 10.9592 8.03969 12.3863 8.92825 13.9508C9.03937 14.166 9.20704 14.347 9.41325 14.4741C9.59502 14.5863 9.80175 14.6516 10.015 14.6642C10.2282 14.6769 10.4412 14.6365 10.6349 14.5466C10.8058 14.4675 10.9583 14.3525 11.0824 14.2083C11.2075 14.063 11.3007 13.893 11.3558 13.7094C11.4109 13.5258 11.4268 13.3326 11.4024 13.1425L10.2458 9.71412M3.83325 8.83328H1.33325V3.41662C1.33325 3.0851 1.46495 2.76716 1.69937 2.53274C1.93379 2.29831 2.25173 2.16662 2.58325 2.16662C2.91477 2.16662 3.23272 2.29831 3.46714 2.53274C3.70156 2.76716 3.83325 3.0851 3.83325 3.41662V8.83328ZM9.24992 9.66662H13.3458C13.5841 9.66662 13.6558 9.65495 13.8674 9.54162C14.0791 9.42828 14.2608 9.26495 14.3983 9.06495C14.5352 8.86285 14.6228 8.63138 14.654 8.38922C14.6851 8.14705 14.6589 7.90096 14.5774 7.67078L12.8291 2.33745C12.6149 1.73328 12.4733 1.33328 11.4333 1.33328C9.51409 1.33328 7.44158 2.11912 5.87492 2.56245" stroke="#C4C4C4" stroke-width="1.5" stroke-linecap="round" stroke-linejoin="round"/>
</svg>
