<svg width="20" height="20" viewBox="0 0 20 20" fill="none" xmlns="http://www.w3.org/2000/svg">
<path d="M5.83325 9.16672C6.57409 9.09505 7.01325 8.71422 7.62992 8.28588C8.92866 7.04077 10.0397 5.61366 10.9283 4.04922C11.0394 3.83395 11.207 3.65303 11.4133 3.52588C11.595 3.41374 11.8018 3.34842 12.015 3.33576C12.2282 3.32311 12.4412 3.36352 12.6349 3.45338C12.8058 3.53255 12.9583 3.64755 13.0824 3.79172C13.2075 3.93699 13.3007 4.10696 13.3558 4.29059C13.4109 4.47421 13.4268 4.66738 13.4024 4.85755L12.2458 8.28588M5.83325 9.16672H3.33325V14.5834C3.33325 14.9149 3.46495 15.2328 3.69937 15.4673C3.93379 15.7017 4.25173 15.8334 4.58325 15.8334C4.91477 15.8334 5.23272 15.7017 5.46714 15.4673C5.70156 15.2328 5.83325 14.9149 5.83325 14.5834V9.16672ZM11.2499 8.33338H15.3458C15.5841 8.33338 15.6558 8.34505 15.8674 8.45838C16.0791 8.57172 16.2608 8.73505 16.3983 8.93505C16.5352 9.13715 16.6228 9.36862 16.654 9.61078C16.6851 9.85295 16.6589 10.099 16.5774 10.3292L14.8291 15.6625C14.6149 16.2667 14.4733 16.6667 13.4333 16.6667C11.5141 16.6667 9.44158 15.8809 7.87492 15.4375" stroke="#C4C4C4" stroke-width="1.5" stroke-linecap="round" stroke-linejoin="round"/>
</svg>
