<svg width="29" height="28" viewBox="0 0 29 28" fill="none" xmlns="http://www.w3.org/2000/svg">
<path d="M22.3468 6.32302L16.3151 2.83469C15.1601 2.16969 13.3518 2.16969 12.1968 2.83469L6.10676 6.34635C3.69176 7.97969 3.55176 8.22469 3.55176 10.8264V17.1614C3.55176 19.763 3.69176 20.0197 6.15342 21.6764L12.1851 25.1647C12.7684 25.503 13.5151 25.6664 14.2501 25.6664C14.9851 25.6664 15.7318 25.503 16.3034 25.1647L22.3934 21.653C24.8084 20.0197 24.9484 19.7747 24.9484 17.173V10.8264C24.9484 8.22469 24.8084 7.97969 22.3468 6.32302ZM14.2501 17.7914C12.1618 17.7914 10.4584 16.088 10.4584 13.9997C10.4584 11.9114 12.1618 10.208 14.2501 10.208C16.3384 10.208 18.0418 11.9114 18.0418 13.9997C18.0418 16.088 16.3384 17.7914 14.2501 17.7914Z" fill="#A67C00"/>
</svg>
