<svg width="29" height="28" viewBox="0 0 29 28" fill="none" xmlns="http://www.w3.org/2000/svg">
<path d="M3.75 10.6276V17.3593C3.75 19.8326 3.75 19.8326 6.08333 21.4076L12.5 25.1176C13.4683 25.6776 15.0433 25.6776 16 25.1176L22.4167 21.4076C24.75 19.8326 24.75 19.8326 24.75 17.3709V10.6276C24.75 8.16594 24.75 8.16594 22.4167 6.59094L16 2.88094C15.0433 2.32094 13.4683 2.32094 12.5 2.88094L6.08333 6.59094C3.75 8.16594 3.75 8.16594 3.75 10.6276Z" stroke="#5E5E5E" stroke-opacity="0.5" stroke-width="1.5" stroke-linecap="round" stroke-linejoin="round"/>
<path d="M14.25 17.5C16.183 17.5 17.75 15.933 17.75 14C17.75 12.067 16.183 10.5 14.25 10.5C12.317 10.5 10.75 12.067 10.75 14C10.75 15.933 12.317 17.5 14.25 17.5Z" stroke="#5E5E5E" stroke-opacity="0.5" stroke-width="1.5" stroke-linecap="round" stroke-linejoin="round"/>
</svg>
