<svg width="20" height="21" viewBox="0 0 20 21" fill="none" xmlns="http://www.w3.org/2000/svg">
<path d="M8.9597 14.5508V16.2425C8.9597 17.6758 7.62636 18.8341 5.98469 18.8341C4.34302 18.8341 3.00134 17.6758 3.00134 16.2425V14.5508C3.00134 15.9841 4.33469 17.0008 5.98469 17.0008C7.62636 17.0008 8.9597 15.9758 8.9597 14.5508Z" stroke="#5E5E5E" stroke-width="1.5" stroke-linecap="round" stroke-linejoin="round"/>
<path d="M8.95834 12.2581C8.95834 12.6748 8.84167 13.0581 8.64167 13.3914C8.15001 14.1998 7.14166 14.7081 5.975 14.7081C4.80833 14.7081 3.79999 14.1914 3.30832 13.3914C3.10832 13.0581 2.9917 12.6748 2.9917 12.2581C2.9917 11.5415 3.32501 10.8998 3.85835 10.4331C4.40001 9.95812 5.14165 9.6748 5.96665 9.6748C6.79165 9.6748 7.53335 9.96645 8.07501 10.4331C8.62501 10.8914 8.95834 11.5415 8.95834 12.2581Z" stroke="#5E5E5E" stroke-width="1.5" stroke-linecap="round" stroke-linejoin="round"/>
<path d="M8.9597 12.2586V14.5503C8.9597 15.9836 7.62636 17.0003 5.98469 17.0003C4.34302 17.0003 3.00134 15.9753 3.00134 14.5503V12.2586C3.00134 10.8253 4.33469 9.66699 5.98469 9.66699C6.80969 9.66699 7.55138 9.95864 8.09305 10.4253C8.62638 10.892 8.9597 11.542 8.9597 12.2586Z" stroke="#5E5E5E" stroke-width="1.5" stroke-linecap="round" stroke-linejoin="round"/>
<path d="M18.3333 9.64196V11.3587C18.3333 11.817 17.9667 12.192 17.5 12.2086H15.8667C14.9667 12.2086 14.1417 11.5503 14.0667 10.6503C14.0167 10.1253 14.2167 9.63364 14.5667 9.29197C14.875 8.97531 15.3 8.79199 15.7667 8.79199H17.5C17.9667 8.80866 18.3333 9.18362 18.3333 9.64196Z" stroke="#5E5E5E" stroke-width="1.5" stroke-linecap="round" stroke-linejoin="round"/>
<path d="M1.66663 9.25033V7.58366C1.66663 5.31699 3.03329 3.73366 5.15829 3.46699C5.37496 3.43366 5.59996 3.41699 5.83329 3.41699H13.3333C13.55 3.41699 13.7583 3.42532 13.9583 3.45865C16.1083 3.70865 17.5 5.30033 17.5 7.58366V8.792H15.7666C15.2999 8.792 14.8749 8.97532 14.5666 9.29198C14.2166 9.63365 14.0166 10.1253 14.0666 10.6503C14.1416 11.5503 14.9666 12.2086 15.8666 12.2086H17.5V13.417C17.5 15.917 15.8333 17.5837 13.3333 17.5837H11.25" stroke="#5E5E5E" stroke-width="1.5" stroke-linecap="round" stroke-linejoin="round"/>
</svg>
