<svg width="227" height="226" viewBox="0 0 227 226" fill="none" xmlns="http://www.w3.org/2000/svg">
<path d="M110.891 115.621C112.746 116.632 109.283 126.568 103.155 137.812C97.0265 149.058 90.5547 157.355 88.6998 156.343C86.8443 155.332 90.3078 145.396 96.4357 134.151C102.564 122.906 109.035 114.609 110.891 115.621Z" fill="#FFAE4A"/>
<path d="M110.028 112.404C111.883 113.415 108.42 123.351 102.291 134.597C96.1637 145.841 89.692 154.137 87.8364 153.127C85.9808 152.116 89.4441 142.18 95.5722 130.935C101.7 119.689 108.172 111.393 110.028 112.404Z" fill="#F59A38"/>
<g opacity="0.1">
<path d="M79.5337 156.818C77.5829 159.945 73.9435 161.196 71.405 159.611C68.867 158.028 68.3907 154.209 70.3412 151.083C72.2927 147.956 75.932 146.706 78.4701 148.289C81.0086 149.873 81.4845 153.692 79.5337 156.818Z" fill="black"/>
<path d="M70.701 156.148C68.939 158.152 66.1436 158.576 64.4577 157.093C62.7718 155.611 62.8334 152.784 64.5956 150.781C66.3573 148.776 69.1524 148.353 70.8384 149.835C72.5247 151.318 72.463 154.144 70.701 156.148Z" fill="black"/>
<path d="M87.2114 166.393C86.368 169.807 88.2227 172.876 91.3539 173.248C94.4851 173.62 97.7066 171.155 98.55 167.742C99.3929 164.328 97.5383 161.259 94.4071 160.886C91.2763 160.514 88.0543 162.979 87.2114 166.393Z" fill="black"/>
<path d="M95.6579 171.263C94.8032 173.79 95.8344 176.422 97.9611 177.141C100.088 177.86 102.505 176.393 103.359 173.866C104.214 171.338 103.183 168.705 101.056 167.987C98.9292 167.267 96.5123 168.734 95.6579 171.263Z" fill="black"/>
<path d="M89.4417 176.011C88.6824 178.259 90.2671 180.824 92.9813 181.742C95.6961 182.66 98.5125 181.582 99.2724 179.335C100.032 177.087 98.4474 174.521 95.7332 173.603C93.018 172.686 90.2014 173.764 89.4417 176.011Z" fill="black"/>
<path d="M86.5373 178.517C88.6524 180.562 91.2875 180.824 92.424 179.101C93.5596 177.378 92.7663 174.323 90.6515 172.278C88.5367 170.233 85.9012 169.971 84.7653 171.694C83.6285 173.417 84.4224 176.472 86.5373 178.517ZM77.0674 154.685C76.2128 157.213 77.2441 159.845 79.3712 160.564C81.4976 161.283 83.9143 159.816 84.769 157.289C85.6238 154.76 84.5921 152.128 82.4655 151.409C80.3391 150.69 77.9222 152.157 77.0674 154.685ZM87.7183 157.755C85.6944 159.355 85.1582 161.573 86.5207 162.708C87.8829 163.843 90.6274 163.466 92.6508 161.867C94.6747 160.267 95.2106 158.049 93.8489 156.914C92.4867 155.778 89.7417 156.156 87.7183 157.755Z" fill="black"/>
<path d="M83.4293 155.497C81.4989 157.339 81.1904 160.149 82.7403 161.773C84.2907 163.397 87.1122 163.221 89.0424 161.378C90.973 159.535 91.2814 156.725 89.7313 155.101C88.1814 153.477 85.36 153.654 83.4293 155.497ZM98.399 176.552C98.2485 178.675 99.6334 180.503 101.493 180.635C103.352 180.766 104.981 179.153 105.132 177.029C105.282 174.906 103.897 173.078 102.037 172.946C100.178 172.815 98.5495 174.429 98.399 176.552Z" fill="black"/>
<path d="M97.0825 177.431C96.9113 179.846 98.4869 181.925 100.601 182.075C102.716 182.225 104.569 180.389 104.74 177.974C104.911 175.559 103.336 173.48 101.221 173.33C99.1065 173.18 97.254 175.016 97.0825 177.431ZM72.4456 164.335C70.5197 165.563 69.5705 167.991 70.3247 169.759C71.0801 171.526 73.2527 171.963 75.1782 170.734C77.1043 169.505 78.0539 167.077 77.299 165.31C76.5441 163.542 74.3711 163.106 72.4456 164.335ZM82.0161 170.888C79.9702 172.357 77.5036 174.841 78.4408 176.741C79.3784 178.64 83.3653 179.236 85.4108 177.768C87.4564 176.299 88.3546 173.569 87.4176 171.669C86.4798 169.769 84.0615 169.42 82.0161 170.888Z" fill="black"/>
<path d="M74.4728 169.192L82.4974 173.287C81.4912 176.29 79.2494 179.112 73.1267 175.639C70.1456 172.356 72.4438 171.269 74.4728 169.192Z" fill="black"/>
<path d="M77.9439 166.236C76.6539 168.121 76.7322 170.727 78.1194 172.057C79.5061 173.388 81.6764 172.937 82.9663 171.053C84.2569 169.168 84.1784 166.561 82.7915 165.231C81.4047 163.901 79.2347 164.351 77.9439 166.236ZM100.341 178.582C99.9034 180.175 100.679 181.777 102.074 182.16C103.469 182.543 104.955 181.562 105.392 179.969C105.829 178.376 105.054 176.774 103.659 176.391C102.264 176.008 100.779 176.989 100.341 178.582Z" fill="black"/>
<path d="M98.4563 180.906C98.0185 182.499 98.9387 184.141 100.511 184.573C102.084 185.005 103.713 184.064 104.151 182.47C104.589 180.877 103.669 179.236 102.096 178.804C100.524 178.372 98.8938 179.313 98.4563 180.906Z" fill="black"/>
<path d="M95.8061 179.295C95.6528 180.387 96.3376 181.552 97.3359 181.895C98.3337 182.238 99.2673 181.631 99.4201 180.538C99.5736 179.446 98.8891 178.281 97.8905 177.939C96.8928 177.595 95.9593 178.203 95.8061 179.295Z" fill="black"/>
<path d="M94.4202 179.063C94.2671 180.156 94.9522 181.32 95.9497 181.663C96.9478 182.007 97.8815 181.399 98.0347 180.307C98.1882 179.213 97.5034 178.049 96.5054 177.706C95.5069 177.363 94.5735 177.97 94.4202 179.063Z" fill="black"/>
<path d="M97.917 180.334C97.7635 181.426 98.4481 182.591 99.4461 182.934C100.444 183.277 101.378 182.67 101.531 181.577C101.684 180.485 100.999 179.32 100.001 178.978C99.0032 178.634 98.0698 179.241 97.917 180.334Z" fill="black"/>
<path d="M73.6834 164.484C72.3899 167.063 69.7905 168.376 67.8761 167.416C65.9622 166.457 65.4588 163.588 66.7521 161.008C68.0454 158.428 70.6452 157.115 72.5596 158.075C74.4736 159.034 74.9768 161.903 73.6834 164.484Z" fill="black"/>
<path d="M63.1215 162.827C65.236 164.872 67.8718 165.134 69.0077 163.411C70.144 161.688 69.3504 158.633 67.2357 156.588C65.1204 154.543 62.4851 154.281 61.3488 156.004C60.2129 157.727 61.0065 160.781 63.1215 162.827Z" fill="black"/>
<path d="M59.6696 153.657C57.6237 155.126 55.7813 157.519 56.7187 159.419C57.6565 161.318 61.0187 162.005 63.0643 160.537C65.1097 159.068 66.0084 156.337 65.071 154.438C64.1335 152.538 61.7151 152.189 59.6696 153.657ZM92.3804 169.316C90.9748 171.751 85.8875 171.445 81.0181 168.634C76.1488 165.823 73.3409 161.57 74.7465 159.135C76.1523 156.7 81.2394 157.005 86.1088 159.817C90.9782 162.628 93.7862 166.881 92.3804 169.316Z" fill="black"/>
</g>
<path d="M79.3462 157.31C77.3952 160.437 73.7556 161.687 71.2178 160.103C68.6795 158.519 68.2029 154.701 70.154 151.574C72.105 148.448 75.7446 147.198 78.2826 148.781C80.8207 150.365 81.297 154.184 79.3462 157.31Z" fill="#C5E0E0"/>
<path d="M71.4637 155.682C69.7017 157.686 66.9063 158.109 65.2207 156.626C63.5347 155.144 63.5963 152.318 65.3583 150.313C67.1202 148.31 69.9156 147.886 71.6014 149.369C73.2872 150.851 73.2259 153.677 71.4637 155.682Z" fill="#C5E0E0"/>
<path d="M87.9691 165.924C87.126 169.338 88.9811 172.407 92.1123 172.779C95.243 173.151 98.4645 170.686 99.3077 167.272C100.151 163.859 98.2962 160.79 95.1652 160.418C92.0342 160.045 88.8125 162.51 87.9691 165.924Z" fill="#C5E0E0"/>
<path d="M95.6334 171.079C94.7794 173.606 95.8101 176.239 97.9371 176.958C100.064 177.676 102.48 176.21 103.335 173.682C104.19 171.154 103.158 168.522 101.032 167.803C98.9051 167.084 96.4882 168.55 95.6334 171.079Z" fill="#C5E0E0"/>
<path d="M91.2533 172.567C90.2811 175.443 91.454 178.437 93.8731 179.254C96.292 180.071 99.0409 178.404 100.013 175.528C100.985 172.653 99.812 169.659 97.3929 168.842C94.9742 168.024 92.2254 169.692 91.2533 172.567Z" fill="#C5E0E0"/>
<path d="M87.0499 177.676C89.1647 179.722 91.8003 179.983 92.9366 178.26C94.0726 176.537 93.2791 173.482 91.1643 171.437C89.0495 169.391 86.4138 169.13 85.2779 170.853C84.1413 172.576 84.9349 175.631 87.0499 177.676ZM77.826 154.217C76.9715 156.744 78.0026 159.376 80.1294 160.095C82.2565 160.814 84.673 159.348 85.5278 156.819C86.382 154.292 85.351 151.66 83.2244 150.941C81.0975 150.222 78.6806 151.688 77.826 154.217ZM88.4765 157.287C86.4533 158.886 85.9167 161.104 87.2791 162.24C88.6413 163.375 91.3863 162.998 93.4092 161.398C95.4329 159.798 95.9693 157.58 94.6071 156.445C93.2447 155.31 90.5002 155.687 88.4765 157.287Z" fill="#C5E0E0"/>
<path d="M84.1873 155.032C82.2567 156.874 81.948 159.684 83.4984 161.308C85.0482 162.932 87.8696 162.755 89.8 160.913C91.7308 159.07 92.0392 156.26 90.4891 154.636C88.939 153.012 86.1179 153.189 84.1873 155.032ZM99.1566 176.087C99.0061 178.21 100.391 180.038 102.25 180.169C104.11 180.302 105.739 178.687 105.889 176.564C106.04 174.441 104.654 172.613 102.795 172.481C100.937 172.349 99.3074 173.963 99.1566 176.087Z" fill="#C5E0E0"/>
<path d="M97.7354 177.017C97.5639 179.432 99.1393 181.511 101.254 181.661C103.368 181.811 105.221 179.974 105.392 177.56C105.563 175.145 103.988 173.066 101.874 172.916C99.7591 172.766 97.9062 174.602 97.7354 177.017ZM74.0812 163.054C72.1558 164.282 71.2064 166.711 71.9606 168.477C72.7157 170.245 74.8883 170.682 76.8145 169.453C78.7399 168.224 79.6895 165.796 78.9348 164.029C78.18 162.262 76.0069 161.825 74.0812 163.054ZM81.7225 170.226C79.8672 171.558 79.0518 174.035 79.9022 175.758C80.7526 177.482 82.9465 177.799 84.802 176.466C86.6573 175.134 87.4723 172.658 86.6226 170.934C85.7715 169.211 83.5783 168.894 81.7225 170.226Z" fill="#C5E0E0"/>
<path d="M78.7026 165.768C77.4121 167.653 77.4905 170.259 78.877 171.589C80.2646 172.919 82.4344 172.469 83.7246 170.584C85.0149 168.699 84.9366 166.093 83.5495 164.764C82.1625 163.433 79.9924 163.883 78.7026 165.768ZM99.0071 179.167C98.5694 180.76 99.345 182.362 100.74 182.745C102.135 183.128 103.62 182.147 104.058 180.554C104.495 178.961 103.72 177.359 102.325 176.976C100.93 176.593 99.4446 177.573 99.0071 179.167ZM92.2728 177.36C92.1193 178.453 92.8044 179.617 93.802 179.96C94.8004 180.304 95.7339 179.696 95.8869 178.604C96.0404 177.511 95.3553 176.347 94.3573 176.003C93.359 175.66 92.4261 176.267 92.2728 177.36Z" fill="#C5E0E0"/>
<path d="M95.2774 177.86C95.1062 179.195 96.0733 180.645 97.4385 181.1C98.8033 181.554 100.048 180.841 100.219 179.506C100.39 178.171 99.4226 176.721 98.0581 176.267C96.6931 175.812 95.4484 176.525 95.2774 177.86Z" fill="#C5E0E0"/>
<path d="M74.6624 164.171C73.3689 166.75 70.7693 168.063 68.8549 167.104C66.9407 166.144 66.4373 163.275 67.7306 160.696C69.0242 158.116 71.6239 156.804 73.5381 157.763C75.4521 158.723 75.9555 161.592 74.6624 164.171Z" fill="#C5E0E0"/>
<path d="M75.7741 167.909L82.4695 171.273C81.4374 174.088 77.3274 176.732 74.0836 173.502C73.3501 171.065 73.9272 169.937 75.7741 167.909Z" fill="#C5E0E0"/>
<path d="M81.7783 168.165C86.6477 170.976 91.7347 171.282 93.1403 168.847C94.546 166.412 91.7381 162.16 86.8686 159.348C81.9992 156.537 76.9122 156.232 75.5066 158.666C74.1009 161.101 76.9088 165.354 81.7783 168.165Z" fill="#C5E0E0"/>
<path d="M92.776 167.181C91.3701 169.616 86.2832 169.311 81.4137 166.499C76.5443 163.688 73.7365 159.435 75.1423 157C76.5479 154.566 81.635 154.871 86.5043 157.682C91.3739 160.494 94.1816 164.746 92.776 167.181Z" fill="white"/>
<path d="M78.633 153.871C76.682 156.997 73.334 158.429 71.155 157.069C68.9757 155.709 68.7907 152.073 70.7417 148.946C72.6922 145.82 76.0403 144.388 78.2195 145.748C80.399 147.108 80.584 150.744 78.633 153.871Z" fill="white"/>
<path d="M71.0996 154.008C69.3373 156.012 66.5424 156.435 64.8558 154.953C63.1704 153.47 63.232 150.644 64.9937 148.64C66.7561 146.635 69.551 146.213 71.2377 147.695C72.9232 149.178 72.8615 152.004 71.0996 154.008Z" fill="white"/>
<path d="M90.2566 166.287C89.1338 169.372 90.5077 171.875 93.3247 171.877C96.1416 171.88 99.3351 169.381 100.458 166.296C101.58 163.212 100.206 160.708 97.3895 160.706C94.5725 160.703 91.3791 163.201 90.2566 166.287Z" fill="white"/>
<path d="M96.0533 169.126C95.1987 171.654 96.2297 174.286 98.3566 175.005C100.484 175.724 102.9 174.258 103.755 171.73C104.61 169.201 103.578 166.569 101.452 165.85C99.3244 165.132 96.9078 166.598 96.0533 169.126Z" fill="white"/>
<path d="M91.8992 171.752C91.1882 174.622 92.345 177.111 94.4824 177.311C96.62 177.51 98.9298 175.345 99.6406 172.476C100.352 169.606 99.1953 167.118 97.0577 166.918C94.92 166.718 92.6102 168.883 91.8992 171.752Z" fill="white"/>
<path d="M86.315 172.892C86.8548 175.784 88.8517 177.523 90.7757 176.777C92.6994 176.031 93.822 173.08 93.2823 170.188C92.7425 167.296 90.7452 165.557 88.8213 166.304C86.8976 167.05 85.775 170 86.315 172.892ZM77.4624 152.543C76.6076 155.071 77.6391 157.703 79.7658 158.422C81.8924 159.141 84.3093 157.675 85.1641 155.146C86.0182 152.619 84.9871 149.986 82.8603 149.267C80.7338 148.548 78.3171 150.015 77.4624 152.543ZM90.3017 156.655C88.0078 158.469 87.4 160.982 88.9443 162.269C90.4883 163.556 93.5997 163.129 95.8938 161.316C98.1879 159.501 98.7956 156.988 97.252 155.701C95.7072 154.414 92.5958 154.841 90.3017 156.655Z" fill="white"/>
<path d="M89.4835 161.048C87.4596 162.649 86.9237 164.866 88.2859 166.001C89.6478 167.137 92.3922 166.76 94.4163 165.16C96.4399 163.56 96.9759 161.342 95.6139 160.207C94.2515 159.072 91.507 159.448 89.4835 161.048ZM84.4692 159.739C86.7297 161.156 89.5296 160.763 90.7218 158.861C91.9147 156.959 91.0482 154.268 88.7875 152.85C86.5265 151.433 83.7268 151.826 82.5342 153.728C81.3421 155.629 82.2082 158.321 84.4692 159.739ZM98.7915 174.409C98.641 176.533 100.026 178.36 101.885 178.492C103.744 178.624 105.373 177.009 105.524 174.886C105.674 172.763 104.289 170.935 102.43 170.804C100.571 170.672 98.9419 172.286 98.7915 174.409Z" fill="white"/>
<path d="M97.3712 175.346C97.2005 177.761 98.7758 179.84 100.891 179.99C103.005 180.14 104.858 178.303 105.029 175.889C105.2 173.474 103.625 171.395 101.51 171.245C99.3956 171.095 97.5429 172.931 97.3712 175.346Z" fill="white"/>
<path d="M99.6398 172.477C99.8045 171.638 99.8515 170.774 99.7133 169.939C99.633 169.524 99.5182 169.117 99.3444 168.734C99.16 168.358 98.92 168.009 98.6179 167.724C98.0256 167.132 97.1447 166.894 96.3175 167.011C95.4815 167.125 94.7078 167.551 94.0474 168.089C94.6596 167.495 95.4299 167.023 96.2969 166.875C97.1551 166.722 98.1034 166.975 98.7403 167.595C99.0576 167.901 99.3047 168.271 99.4916 168.666C99.6651 169.067 99.7875 169.488 99.8484 169.918C99.9617 170.779 99.8762 171.654 99.6398 172.477Z" fill="#E3E3E3"/>
<path d="M98.6948 180.576C100.809 180.726 102.662 178.89 102.833 176.475C103.004 174.06 101.429 171.981 99.3143 171.831L98.6948 180.576Z" fill="white"/>
<path d="M98.6942 180.577C99.7788 180.624 100.825 180.124 101.535 179.342C102.254 178.561 102.673 177.526 102.744 176.47C102.822 175.415 102.554 174.331 101.952 173.457C101.36 172.583 100.394 171.94 99.3138 171.833C99.8536 171.85 100.388 172.014 100.861 172.282C101.333 172.556 101.741 172.936 102.064 173.378C102.711 174.266 102.99 175.391 102.921 176.483C102.835 177.573 102.4 178.648 101.634 179.435C101.253 179.827 100.795 180.146 100.289 180.35C99.783 180.55 99.2311 180.636 98.6942 180.577Z" fill="#E3E3E3"/>
<path d="M74.59 162.696C72.6641 163.924 71.7152 166.352 72.4693 168.12C73.2244 169.887 75.397 170.324 77.3229 169.095C79.2488 167.866 80.1977 165.438 79.4433 163.671C78.6887 161.903 76.5159 161.467 74.59 162.696ZM83.2887 167.995C81.4329 169.327 80.6177 171.804 81.4681 173.527C82.3183 175.25 84.5124 175.567 86.3679 174.235C88.2228 172.903 89.0385 170.425 88.1878 168.703C87.3372 166.98 85.1438 166.663 83.2887 167.995Z" fill="white"/>
<path d="M64.4267 160.618C66.5417 162.664 69.1768 162.925 70.3136 161.202C71.449 159.48 70.6559 156.424 68.5408 154.379C66.4263 152.333 63.7905 152.072 62.6546 153.795C61.5181 155.518 62.3115 158.573 64.4267 160.618Z" fill="#C5E0E0"/>
<path d="M60.2858 152.433C58.43 153.765 57.615 156.242 58.4657 157.965C59.3161 159.688 61.5095 160.005 63.365 158.673C65.2208 157.341 66.0355 154.864 65.1852 153.141C64.335 151.417 62.1416 151.101 60.2858 152.433Z" fill="#C5E0E0"/>
<path d="M63.693 155.833C64.2327 158.725 66.2296 160.464 68.1538 159.718C70.0775 158.972 71.1998 156.022 70.6602 153.129C70.1204 150.237 68.1231 148.498 66.1992 149.245C64.2752 149.991 63.1531 152.941 63.693 155.833Z" fill="white"/>
<path d="M66.9891 159.571C68.2517 162.228 70.6275 163.398 72.2961 162.183C73.9647 160.969 74.294 157.83 73.0316 155.173C71.7692 152.515 69.3932 151.346 67.7244 152.56C66.0558 153.775 65.7267 156.913 66.9891 159.571ZM60.6641 150.937C58.8086 152.27 57.9936 154.746 58.844 156.469C59.6941 158.193 61.888 158.51 63.7434 157.177C65.5991 155.845 66.4139 153.369 65.5639 151.645C64.7135 149.922 62.5197 149.605 60.6641 150.937Z" fill="white"/>
<path d="M71.8553 155.492C73.109 155.697 74.2715 154.973 74.4516 153.875C74.6309 152.778 73.7603 151.721 72.5063 151.516C71.2522 151.31 70.0897 152.034 69.9098 153.132C69.7302 154.229 70.6012 155.286 71.8553 155.492Z" fill="white"/>
<path d="M71.8562 155.489C72.4144 155.575 73.0028 155.48 73.4882 155.194C73.9723 154.91 74.3335 154.416 74.4087 153.866C74.4914 153.315 74.2808 152.755 73.912 152.356C73.5473 151.947 73.0317 151.687 72.4926 151.601C71.9545 151.511 71.3827 151.593 70.9069 151.864C70.4303 152.126 70.0521 152.589 69.9551 153.137C69.8507 153.682 70.0358 154.265 70.4039 154.689C70.7726 155.115 71.3 155.392 71.8562 155.489ZM71.8562 155.489C71.2987 155.401 70.7641 155.131 70.3844 154.706C70.0007 154.29 69.7788 153.701 69.8665 153.122C69.9459 152.543 70.3266 152.026 70.8302 151.732C71.3352 151.434 71.9447 151.336 72.5213 151.425C73.0962 151.525 73.6426 151.812 74.0263 152.255C74.4092 152.695 74.6055 153.306 74.4963 153.88C74.3949 154.457 73.9972 154.944 73.5011 155.216C73.0057 155.498 72.413 155.583 71.8562 155.489Z" fill="#E3E3E3"/>
<path d="M67.0475 159.669C68.9945 160.328 71.041 159.48 71.6178 157.775C72.1953 156.07 71.0852 154.153 69.1381 153.494C67.1909 152.835 65.1451 153.683 64.5677 155.388C63.9901 157.093 65.101 159.01 67.0475 159.669Z" fill="white"/>
<path d="M67.0467 159.668C67.9149 159.952 68.8791 159.956 69.7295 159.627C70.5769 159.302 71.2839 158.609 71.5489 157.75C71.8268 156.894 71.6395 155.944 71.1567 155.209C70.6829 154.46 69.9288 153.908 69.0909 153.629C68.2559 153.343 67.3216 153.323 66.4906 153.63C65.6609 153.922 64.9351 154.561 64.6355 155.41C64.3245 156.253 64.4651 157.233 64.9407 158.006C65.4163 158.784 66.1846 159.366 67.0467 159.668ZM67.0467 159.668C66.1802 159.379 65.3983 158.807 64.9049 158.028C64.4026 157.263 64.2045 156.265 64.4981 155.364C64.7778 154.461 65.5218 153.735 66.4034 153.399C67.288 153.057 68.2865 153.062 69.1833 153.356C70.0744 153.668 70.8708 154.27 71.3658 155.079C71.8606 155.882 72.0114 156.909 71.685 157.797C71.3711 158.69 70.6078 159.363 69.7442 159.666C68.8789 159.986 67.9103 159.965 67.0467 159.668Z" fill="#E3E3E3"/>
<path d="M65.1317 155.689C65.9415 154.4 66.1552 152.838 65.5643 151.639C64.7138 149.916 62.52 149.599 60.6645 150.931L65.1317 155.689Z" fill="white"/>
<path d="M65.1313 155.69C65.3266 155.325 65.4927 154.947 65.6025 154.553C65.7193 154.162 65.7907 153.758 65.8002 153.354C65.8036 152.951 65.7646 152.547 65.6474 152.165C65.5298 151.784 65.3352 151.428 65.0793 151.129C64.8266 150.825 64.4982 150.588 64.1334 150.434C63.7681 150.277 63.3678 150.215 62.9674 150.209C62.159 150.201 61.366 150.5 60.664 150.932C60.9876 150.673 61.3483 150.459 61.733 150.291C62.1225 150.135 62.5391 150.04 62.9634 150.018C63.8099 149.969 64.6998 150.305 65.2673 150.967C65.5424 151.301 65.7448 151.69 65.8634 152.1C65.9779 152.512 66.0242 152.941 65.99 153.363C65.924 154.208 65.6122 155.016 65.1313 155.69Z" fill="#E3E3E3"/>
<path d="M85.4907 172.989C88.0335 173.165 90.2198 171.503 90.3741 169.275C90.5284 167.048 88.5915 165.099 86.0485 164.923C83.5056 164.747 81.3196 166.41 81.1653 168.638C81.0117 170.865 82.9479 172.814 85.4907 172.989Z" fill="white"/>
<path d="M85.489 172.99C86.6194 173.063 87.782 172.765 88.6942 172.095C89.6068 171.436 90.2364 170.383 90.2835 169.269C90.3462 168.155 89.8225 167.074 89.0101 166.346C88.201 165.604 87.1271 165.178 86.0348 165.103C84.9423 165.027 83.8204 165.302 82.9171 165.925C82.4676 166.236 82.071 166.629 81.7799 167.095C81.4876 167.559 81.3023 168.093 81.2534 168.644C81.1466 169.754 81.6252 170.883 82.4379 171.662C83.249 172.451 84.3594 172.906 85.489 172.99ZM85.489 172.99C84.3589 172.912 83.2456 172.471 82.4034 171.698C81.984 171.313 81.6306 170.848 81.3959 170.322C81.1597 169.797 81.0443 169.213 81.0739 168.632C81.1241 167.461 81.7882 166.356 82.738 165.673C83.6874 164.976 84.8915 164.67 86.0595 164.746C87.2269 164.832 88.3768 165.301 89.2211 166.122C90.0667 166.93 90.5732 168.114 90.4613 169.282C90.4106 169.862 90.2161 170.424 89.9101 170.911C89.6053 171.4 89.1912 171.812 88.723 172.136C87.7825 172.785 86.6192 173.068 85.489 172.99Z" fill="#E3E3E3"/>
<path d="M78.3389 164.097C77.0486 165.981 77.1275 168.587 78.5142 169.918C79.9007 171.248 82.0712 170.798 83.3618 168.913C84.6516 167.028 84.5732 164.421 83.186 163.092C81.7996 161.761 79.629 162.212 78.3389 164.097Z" fill="white"/>
<path d="M90.321 168.985C92.0258 170.523 94.4998 170.559 95.8463 169.066C97.1933 167.574 96.9031 165.117 95.1983 163.579C93.4935 162.041 91.0201 162.004 89.673 163.497C88.326 164.99 88.6165 167.446 90.321 168.985Z" fill="white"/>
<path d="M90.3204 168.985C91.0836 169.662 92.0702 170.096 93.0891 170.137C94.1028 170.183 95.1402 169.79 95.7998 169.026C96.4715 168.269 96.7079 167.205 96.5403 166.229C96.3863 165.243 95.8552 164.335 95.1149 163.671C94.3786 163.004 93.421 162.568 92.4249 162.516C91.4365 162.45 90.4025 162.794 89.7188 163.539C89.0258 164.274 88.7421 165.346 88.8912 166.349C89.0366 167.358 89.5687 168.295 90.3204 168.985ZM90.3204 168.985C89.5608 168.304 89.0143 167.371 88.8554 166.355C88.7749 165.849 88.7846 165.324 88.9127 164.823C89.0385 164.322 89.2823 163.848 89.6263 163.456C90.3125 162.661 91.3905 162.256 92.4349 162.304C93.4852 162.347 94.4986 162.792 95.2808 163.488C96.052 164.195 96.5995 165.157 96.7497 166.197C96.9037 167.231 96.6119 168.345 95.8915 169.109C95.5371 169.491 95.0902 169.782 94.605 169.958C94.1197 170.137 93.5989 170.201 93.0875 170.173C92.0599 170.119 91.0755 169.671 90.3204 168.985Z" fill="#E3E3E3"/>
<path d="M97.7819 175.232C99.1291 173.74 98.8386 171.282 97.134 169.745C95.4291 168.207 92.9551 168.17 91.6083 169.663L97.7819 175.232Z" fill="white"/>
<path d="M97.7816 175.233C98.4371 174.439 98.662 173.371 98.487 172.393C98.3185 171.408 97.7949 170.499 97.0506 169.837C96.3157 169.166 95.3577 168.737 94.3611 168.671C93.3698 168.597 92.331 168.931 91.6081 169.663C91.9298 169.264 92.3633 168.955 92.8409 168.752C93.3222 168.554 93.8479 168.467 94.37 168.481C95.4198 168.509 96.433 168.962 97.2166 169.653C97.9841 170.362 98.5391 171.323 98.6749 172.364C98.7418 172.882 98.7097 173.414 98.5621 173.913C98.4086 174.409 98.1459 174.872 97.7816 175.233Z" fill="#E3E3E3"/>
<path d="M98.7738 178.341C98.3361 179.934 99.1126 181.536 100.507 181.919C101.902 182.302 103.387 181.321 103.825 179.728C104.262 178.136 103.487 176.533 102.091 176.151C100.697 175.767 99.2113 176.748 98.7738 178.341Z" fill="white"/>
<path d="M80.0401 171.326C80.5249 172.501 81.7515 173.109 82.78 172.684C83.8085 172.26 84.2495 170.963 83.7649 169.789C83.2796 168.614 82.0524 168.006 81.0243 168.43C79.9958 168.855 79.5553 170.152 80.0401 171.326Z" fill="white"/>
<path d="M80.0411 171.325C80.2619 171.844 80.652 172.295 81.1509 172.557C81.6466 172.82 82.2568 172.867 82.7642 172.641C83.2762 172.422 83.6419 171.949 83.7879 171.425C83.9437 170.9 83.8943 170.324 83.6835 169.821C83.4772 169.316 83.1064 168.873 82.6257 168.611C82.1524 168.343 81.5597 168.265 81.0424 168.47C80.5236 168.668 80.1248 169.132 79.9584 169.668C79.7898 170.206 79.8311 170.8 80.0411 171.325ZM80.0411 171.325C79.8231 170.804 79.7713 170.207 79.9335 169.661C80.0855 169.115 80.4694 168.617 81.0082 168.388C81.5424 168.151 82.1829 168.202 82.6979 168.476C83.2166 168.749 83.6206 169.216 83.8482 169.753C84.0654 170.295 84.1089 170.91 83.9336 171.469C83.7611 172.026 83.3439 172.515 82.7981 172.723C82.2544 172.941 81.631 172.859 81.1386 172.58C80.6381 172.307 80.254 171.848 80.0411 171.325Z" fill="#E3E3E3"/>
<path d="M82.0701 168.627C84.1389 168.769 85.9178 167.416 86.0434 165.604C86.1692 163.793 84.5945 162.208 82.5262 162.065C80.4578 161.922 78.6788 163.275 78.5531 165.087C78.4271 166.899 80.002 168.483 82.0701 168.627Z" fill="white"/>
<path d="M82.0704 168.625C82.9904 168.679 83.9319 168.435 84.6771 167.896C85.4206 167.362 85.9325 166.504 85.9714 165.599C86.0232 164.692 85.5969 163.814 84.9373 163.22C84.2831 162.611 83.4055 162.266 82.5167 162.209C81.6286 162.144 80.7121 162.365 79.9801 162.877C79.2456 163.375 78.7012 164.184 78.6266 165.09C78.5391 165.992 78.9272 166.912 79.5894 167.544C80.2528 168.181 81.1519 168.552 82.0704 168.625ZM82.0704 168.625C81.151 168.566 80.2413 168.209 79.5601 167.575C78.8738 166.957 78.425 166.034 78.4805 165.08C78.5219 164.127 79.0619 163.228 79.8355 162.674C80.6109 162.114 81.5862 161.862 82.5368 161.919C83.486 161.994 84.4175 162.377 85.1079 163.039C85.7966 163.696 86.2074 164.66 86.116 165.609C86.0386 166.562 85.4662 167.413 84.7015 167.931C83.9393 168.464 82.9893 168.693 82.0704 168.625Z" fill="#E3E3E3"/>
<path d="M92.501 176.803C92.1992 178.038 92.8309 179.253 93.9117 179.516C94.9926 179.781 96.113 178.994 96.4148 177.759C96.7167 176.525 96.0847 175.31 95.0037 175.046C93.9228 174.782 92.8024 175.569 92.501 176.803Z" fill="white"/>
<path d="M95.9567 177.841C95.6551 179.075 96.3855 180.314 97.5886 180.608C98.7911 180.901 100.01 180.139 100.312 178.905C100.613 177.67 99.8834 176.431 98.6804 176.137C97.4777 175.843 96.2583 176.606 95.9567 177.841Z" fill="white"/>
<path d="M59.2316 156.284C59.5927 155.678 60.0821 155.126 60.6826 154.695C62.5378 153.363 64.7317 153.679 65.5819 155.403C65.9382 156.125 66.0011 156.978 65.8181 157.824L59.2316 156.284Z" fill="white"/>
<path d="M59.2318 156.285C59.4243 155.899 59.6782 155.543 59.9668 155.216C60.2594 154.892 60.603 154.616 60.9699 154.374C61.7116 153.908 62.6142 153.635 63.5141 153.758C63.9594 153.823 64.3955 153.984 64.7659 154.245C65.1341 154.508 65.4374 154.861 65.6312 155.263C65.8362 155.66 65.9412 156.099 65.9708 156.536C65.9898 156.974 65.9416 157.411 65.8183 157.825C65.8769 157.398 65.8942 156.968 65.8286 156.55C65.7719 156.133 65.6474 155.724 65.4337 155.369C65.0319 154.643 64.2894 154.147 63.4739 154.046C62.6562 153.928 61.8177 154.167 61.0845 154.565C60.7204 154.774 60.3734 155.02 60.0681 155.316C59.7526 155.601 59.4803 155.933 59.2318 156.285Z" fill="#E3E3E3"/>
<path d="M76.0789 164.013C74.0983 166.112 71.2305 166.621 69.6734 165.151C68.116 163.682 68.4596 160.789 70.4405 158.691C72.4208 156.592 75.2887 156.083 76.8458 157.553C78.4031 159.022 78.0598 161.915 76.0789 164.013Z" fill="white"/>
<path d="M76.2312 167.253L83.0981 170.42C82.0652 173.235 76.7537 175.394 74.7832 172.659C74.0495 170.222 74.3843 169.28 76.2312 167.253Z" fill="white"/>
<path d="M95.0047 156.692C96.3815 157.969 96.2386 160.154 94.8074 161.962C94.8227 161.989 94.8374 162.016 94.8514 162.044C95.273 161.943 95.6938 161.888 96.1069 161.888C98.7327 161.891 100.104 164.067 99.3674 166.863C99.6365 166.886 99.9046 166.942 100.168 167.031C101.922 167.624 102.93 169.52 102.75 171.584C103.053 171.685 103.336 171.835 103.597 172.022C103.442 171.871 103.275 171.735 103.097 171.618C103.708 169.226 102.677 166.842 100.669 166.163C100.406 166.074 100.138 166.018 99.8685 165.994C100.605 163.199 99.2342 161.023 96.6077 161.02C96.3141 161.02 96.0158 161.048 95.7163 161.101C97.5012 159.354 97.8673 157.183 96.4691 156.018C95.3489 155.084 93.4041 155.055 91.5447 155.8C92.8827 155.617 94.1511 155.901 95.0047 156.692ZM64.6832 149.114C64.739 149.137 64.795 149.158 64.8502 149.183C66.533 147.377 69.0965 146.955 70.7525 148.279C70.8397 148.348 70.9213 148.422 71.0001 148.498C72.865 146.006 75.6538 144.893 77.6342 146.003C78.85 146.685 79.5096 148.063 79.5722 149.695C80.4562 149.193 81.4657 149.025 82.4375 149.303C83.6843 149.66 84.5949 150.672 85.0012 151.958C86.1156 151.756 87.3772 151.954 88.5284 152.602C89.7296 153.279 90.5743 154.313 90.9589 155.425C90.7232 155.519 90.49 155.626 90.2603 155.749C89.8134 154.858 89.0635 154.053 88.0683 153.493C86.9175 152.845 85.6561 152.647 84.5418 152.848C84.1355 151.563 83.2247 150.551 81.9781 150.193C81.0061 149.915 79.9963 150.084 79.1129 150.586C79.0503 148.954 78.3906 147.575 77.1743 146.894C75.1944 145.784 72.4051 146.897 70.5405 149.389C70.4612 149.313 70.3802 149.239 70.2929 149.17C68.7344 147.924 66.3723 148.225 64.6967 149.77C64.6163 149.686 64.5294 149.61 64.44 149.536L64.6833 149.114L64.6832 149.114Z" fill="#D5F5F5"/>
<path d="M90.3383 159.787C87.805 160.876 82.9658 158.4 83.1962 155.663L100.107 133.704L90.3383 159.787Z" fill="white"/>
<path d="M85.9552 161.907C86.2225 161.492 86.3889 161.019 86.4243 160.509C86.5503 158.697 84.9754 157.112 82.9072 156.97C80.8387 156.827 79.0597 158.18 78.9337 159.991L85.9552 161.907Z" fill="white"/>
<path d="M85.9562 161.906C86.4896 160.996 86.4788 159.848 85.9841 158.967C85.4806 158.087 84.5891 157.462 83.6078 157.226C82.6267 156.982 81.5539 157.098 80.6581 157.579C79.7578 158.046 79.0696 158.944 78.9346 159.991C78.9409 159.465 79.112 158.942 79.392 158.487C79.6773 158.032 80.0869 157.662 80.5471 157.384C81.4744 156.824 82.628 156.687 83.6777 156.943C84.7259 157.201 85.6889 157.889 86.1814 158.863C86.4192 159.35 86.5337 159.896 86.4972 160.431C86.4588 160.966 86.2672 161.484 85.9562 161.906Z" fill="#E3E3E3"/>
<path d="M100.065 133.858L91.0444 157.798C90.6153 158.67 89.9346 159.181 89.2191 159.461C89.4302 158.907 94.7136 145.375 97.839 138.016C99.2074 134.793 100.065 133.858 100.065 133.858Z" fill="#D3F0F0"/>
<path d="M71.7866 158.328C71.9346 155.446 73.7884 153.2 75.9267 153.31C78.0652 153.42 79.6785 155.845 79.5304 158.726L71.7866 158.328Z" fill="white"/>
<path d="M71.7867 158.328C71.8062 157.132 72.1364 155.917 72.8312 154.91C73.1743 154.406 73.6243 153.968 74.155 153.652C74.6844 153.337 75.3074 153.159 75.933 153.186C76.5582 153.223 77.1597 153.464 77.654 153.832C78.1492 154.201 78.5526 154.682 78.8421 155.219C79.43 156.292 79.634 157.534 79.5305 158.726C79.5285 158.127 79.4719 157.53 79.3279 156.953C79.192 156.377 78.9784 155.818 78.6765 155.313C78.3726 154.812 77.9937 154.352 77.5209 154.015C77.0522 153.675 76.4945 153.462 75.9204 153.433C75.3462 153.402 74.7696 153.557 74.2685 153.847C73.7637 154.135 73.3392 154.553 72.9855 155.021C72.6334 155.492 72.364 156.026 72.1695 156.585C71.9673 157.144 71.8498 157.732 71.7867 158.328Z" fill="#E3E3E3"/>
<path d="M77.9442 165.907C79.8701 164.679 80.8193 162.25 80.0646 160.483C79.3098 158.716 77.1369 158.28 75.2111 159.508C74.2498 160.121 73.5315 161.034 73.1473 162.014L77.9442 165.907Z" fill="white"/>
<path d="M77.9444 165.906C78.4638 165.539 78.9205 165.09 79.2806 164.573C79.6455 164.063 79.9281 163.49 80.0757 162.884C80.2212 162.282 80.2734 161.647 80.1243 161.048C80.0636 160.746 79.9346 160.464 79.7869 160.199C79.6271 159.94 79.4246 159.71 79.1909 159.517C78.9506 159.333 78.6855 159.179 78.3963 159.081C78.106 158.992 77.8037 158.924 77.4953 158.926C76.878 158.904 76.267 159.083 75.7035 159.341C75.1389 159.606 74.6282 159.988 74.1971 160.445C73.7576 160.896 73.4081 161.433 73.1475 162.013C73.5683 160.811 74.4635 159.764 75.6185 159.17C76.1932 158.873 76.8409 158.689 77.4991 158.701C77.8285 158.695 78.1558 158.762 78.472 158.856C78.7873 158.96 79.0808 159.123 79.3462 159.324C79.6012 159.539 79.8201 159.793 79.9904 160.078C80.1484 160.368 80.2825 160.674 80.3442 160.998C80.4922 161.641 80.4404 162.313 80.2593 162.934C79.8998 164.183 79.0387 165.258 77.9444 165.906Z" fill="#E3E3E3"/>
<path d="M69.635 162.206C70.2518 163.7 71.8122 164.473 73.1204 163.933C74.429 163.393 74.9897 161.744 74.3727 160.251C73.756 158.757 72.1956 157.983 70.8876 158.523C69.5789 159.064 69.0183 160.713 69.635 162.206Z" fill="white"/>
<path d="M69.6344 162.207C69.9151 162.868 70.4115 163.442 71.046 163.775C71.6768 164.109 72.4528 164.169 73.0983 163.882C73.7494 163.604 74.2148 163.002 74.4005 162.335C74.5987 161.668 74.5358 160.935 74.2673 160.295C74.0051 159.652 73.5337 159.089 72.9223 158.755C72.3204 158.414 71.5664 158.315 70.9085 158.577C70.2487 158.829 69.7412 159.419 69.5293 160.1C69.3147 160.784 69.367 161.541 69.6344 162.207ZM69.6344 162.207C69.3569 161.545 69.2912 160.786 69.4977 160.091C69.6913 159.397 70.1798 158.764 70.865 158.472C71.5443 158.17 72.3592 158.235 73.0142 158.584C73.674 158.931 74.1876 159.525 74.4768 160.208C74.7534 160.897 74.8088 161.68 74.5859 162.392C74.3663 163.1 73.8356 163.721 73.1414 163.987C72.4496 164.263 71.6568 164.159 71.0305 163.804C70.3938 163.457 69.905 162.872 69.6344 162.207Z" fill="#E3E3E3"/>
<path d="M118.654 108.751C120.04 109.506 116.195 119.234 110.067 130.479C103.939 141.724 97.8488 150.228 96.4633 149.473C95.0778 148.718 98.9227 138.99 105.051 127.745C111.179 116.5 117.269 107.996 118.654 108.751Z" fill="#FFC417"/>
<path d="M111.417 106.12C112.802 106.875 108.958 116.603 102.83 127.848C96.7021 139.094 90.6114 147.597 89.2261 146.843C87.8407 146.088 91.6855 136.36 97.813 125.115C103.941 113.87 110.032 105.366 111.417 106.12Z" fill="#FFAB4A"/>
<path d="M112.67 110.386C114.055 111.14 110.211 120.868 104.083 132.114C97.9549 143.359 91.8642 151.862 90.4792 151.108C89.0937 150.353 92.9386 140.625 99.0665 129.38C105.194 118.134 111.285 109.63 112.67 110.386Z" fill="#FFA23B"/>
<path d="M115.898 106.327C117.283 107.082 113.438 116.81 107.31 128.055C101.182 139.3 95.0917 147.804 93.7065 147.05C92.3212 146.294 96.1657 136.566 102.294 125.322C108.422 114.076 114.512 105.573 115.898 106.327Z" fill="#FFA14A"/>
<path d="M114.613 102.464C115.999 103.219 112.154 112.947 106.026 124.191C99.8978 135.437 93.807 143.941 92.4221 143.186C91.0369 142.431 94.8815 132.704 101.01 121.458C107.138 110.213 113.228 101.709 114.613 102.464Z" fill="#FFD957"/>
<path d="M122.355 100.346C123.74 101.101 119.895 110.829 113.767 122.075C107.639 133.319 101.549 141.824 100.163 141.068C98.778 140.314 102.623 130.586 108.751 119.341C114.879 108.096 120.969 99.5917 122.355 100.346Z" fill="#FFCE3B"/>
<path d="M117.378 105.159C118.47 105.755 115.439 113.424 110.607 122.291C105.776 131.157 100.974 137.862 99.8814 137.266C98.7893 136.671 101.82 129.001 106.652 120.135C111.484 111.269 116.286 104.564 117.378 105.159Z" fill="#FFD64F"/>
<path d="M116.654 102.095C117.745 102.69 114.714 110.36 109.882 119.227C105.051 128.093 100.249 134.798 99.1566 134.202C98.0643 133.607 101.096 125.937 105.927 117.072C110.759 108.205 115.561 101.5 116.654 102.095Z" fill="#FFE07D"/>
<path d="M122.184 94.382C123.277 94.9773 120.245 102.647 115.413 111.513C110.582 120.379 105.78 127.085 104.688 126.49C103.596 125.894 106.627 118.224 111.459 109.358C116.29 100.492 121.092 93.787 122.184 94.382Z" fill="#473A17"/>
<path d="M107.816 116.613C108.091 117.079 109.039 117.756 109.935 118.124C110.651 118.42 111.117 118.428 111.134 118.181C111.1 118.677 111.054 119.339 111.021 119.835C111.003 120.083 110.981 120.413 110.964 120.662C110.93 121.157 110.885 121.819 110.851 122.315C110.817 122.811 110.772 123.473 110.738 123.969C110.721 124.217 110.698 124.548 110.681 124.795C110.647 125.291 110.602 125.953 110.568 126.449C110.534 126.945 110.489 127.607 110.455 128.102C110.438 128.351 110.415 128.682 110.398 128.93C110.381 129.179 110.361 129.471 110.341 129.762C109.918 130.575 109.478 131.402 109.028 132.236C108.628 132.33 108.189 132.383 107.709 132.391C104.148 132.445 99.768 129.975 97.9265 126.874C97.7183 126.524 97.5531 126.181 97.4261 125.847C97.5314 125.652 97.6314 125.461 97.7381 125.265C98.4216 124.01 99.1041 122.793 99.7803 121.615C102.458 119.829 105.136 118.043 107.814 116.256C107.72 116.319 107.714 116.439 107.816 116.613Z" fill="#CCCCCC"/>
<path d="M112.517 128.455C115.328 120.34 118.139 112.227 120.95 104.111C120.778 104.609 120.26 104.933 119.473 104.945C118.076 104.966 116.358 103.997 115.636 102.781C115.217 102.075 115.225 101.442 115.577 101.03C109.992 107.553 104.407 114.077 98.8225 120.6C97.9228 121.651 97.9026 123.266 98.9703 125.064C100.812 128.164 105.192 130.634 108.752 130.58C110.759 130.549 112.077 129.725 112.517 128.455Z" fill="#48565E"/>
<path d="M138.127 97.158L137.259 95.6445L121.952 122.331L122.82 123.844L138.127 97.158Z" fill="#C5C5C5"/>
<path d="M138.125 97.1641L122.818 123.85L130.658 123.85L140.341 106.968C140.704 106.336 140.815 105.722 140.657 105.22L138.125 97.1641Z" fill="#3A7AFF"/>
<path d="M114.302 83.4024L116.047 83.3975L100.589 109.996L98.8448 110.001L114.302 83.4024Z" fill="#C5C5C5"/>
<path d="M114.3 83.3992L98.8425 109.998L94.9226 103.209L104.701 86.3821C105.068 85.7515 105.544 85.3485 106.058 85.2342L114.3 83.3992Z" fill="#3A7AFF"/>
<path d="M124.554 124.584C125.13 124.009 125.624 123.373 126.036 122.665L126.038 122.66C126.038 122.662 126.037 122.663 126.036 122.665C126.054 122.633 126.073 122.602 126.091 122.571C126.033 122.671 125.97 122.767 125.906 122.863C125.893 122.883 125.881 122.903 125.868 122.922C123.397 126.342 118.39 126.207 114.644 125.337C107.957 123.82 98.9175 117.648 98.163 110.318C98.1136 109.147 98.3447 108.03 98.8702 106.961C98.3858 107.769 98.0296 108.689 97.8179 109.68C97.8176 109.682 97.8171 109.683 97.8168 109.685L97.8143 109.699C97.7715 109.902 97.7357 110.107 97.703 110.312L97.6803 110.437C97.6756 110.478 97.6712 110.521 97.6668 110.563C97.6188 110.926 97.5896 111.303 97.5826 111.694C97.5821 111.705 97.5814 111.718 97.581 111.729L97.5809 111.749C97.5786 111.987 97.5837 112.23 97.5987 112.479L97.5993 112.514C97.602 112.538 97.6047 112.564 97.607 112.589C97.6356 112.993 97.6881 113.41 97.7687 113.839C97.7807 113.915 97.7924 113.989 97.8039 114.058C97.8658 114.317 97.9337 114.609 97.9981 114.865C98.2769 115.855 98.6582 116.818 99.2037 117.778L99.2041 117.778C101.486 122.032 106.064 125.366 110.818 126.868C110.854 126.88 110.892 126.892 110.925 126.903C111.233 126.994 111.567 127.088 111.877 127.176C112.186 127.255 112.605 127.343 112.916 127.415C113.149 127.454 113.649 127.54 113.886 127.58C114.225 127.627 114.681 127.67 115.022 127.705L115.995 127.749C116.393 127.747 116.831 127.742 117.233 127.717C117.236 127.717 117.239 127.717 117.242 127.717L117.244 127.717C119.086 127.601 120.906 127.1 122.495 126.173C122.668 126.076 122.803 125.991 122.977 125.871C123.198 125.723 123.415 125.567 123.626 125.4C123.657 125.377 123.688 125.354 123.721 125.33L123.821 125.243C123.986 125.107 124.148 124.967 124.306 124.824L124.272 124.853C124.274 124.851 124.276 124.849 124.279 124.847C124.291 124.837 124.302 124.826 124.314 124.817C124.397 124.738 124.474 124.662 124.554 124.584Z" fill="#828282"/>
<path d="M125.818 122.995C125.91 122.856 126.005 122.719 126.089 122.574L153.431 75.0174C149.851 80.5293 140.67 78.065 135.91 75.4326C130.766 72.7482 123.1 65.6379 126.21 59.4073L98.8686 106.964C96.6272 110.765 99.8794 116.206 103.193 119.157C106.983 122.628 111.821 125.107 116.946 125.747C120.065 126.104 123.833 125.722 125.818 122.995Z" fill="#F1F1F1"/>
<path d="M152.896 75.7823C153.086 75.5519 153.261 75.3084 153.41 75.0495C153.4 75.0682 153.388 75.088 153.379 75.1044C153.447 74.9912 153.511 74.8731 153.576 74.7581C153.572 74.7649 153.567 74.7729 153.563 74.7802C154.047 73.8774 153.985 73.9796 154.252 73.3989C154.258 73.3863 154.264 73.3723 154.27 73.3603C154.429 72.9898 154.632 72.5052 154.762 72.1274L154.752 72.1534C154.883 71.7916 154.996 71.4294 155.104 71.0645C155.339 70.2416 155.507 69.462 155.624 68.6325C155.623 68.6337 155.623 68.6353 155.623 68.6366C155.82 67.1784 155.86 65.9596 155.698 64.3196C155.661 63.9082 155.587 63.4877 155.513 63.041C156.212 66.8402 153.393 69.0112 149.857 69.1951C146.492 69.3837 143.165 68.2686 140.256 66.6348C137.638 65.1358 135.249 63.1274 133.616 60.5698C131.495 57.3206 131.306 53.101 135.499 51.5588C135.47 51.5699 135.437 51.5823 135.405 51.5942C135.412 51.5916 135.418 51.5888 135.425 51.5863C135.234 51.6581 135.045 51.7318 134.861 51.8047C134.673 51.8845 134.484 51.9656 134.302 52.0446C134.107 52.1335 133.889 52.2383 133.699 52.3303C130.706 53.827 128.285 56.0612 126.536 58.8604C126.529 58.8718 126.521 58.8845 126.514 58.8954C126.423 59.0482 126.301 59.252 126.211 59.405C124.504 62.2354 125.999 66.4179 128.459 69.3802C128.459 69.38 128.459 69.3799 128.459 69.3799C128.572 69.52 128.688 69.658 128.803 69.7967C129.116 70.1622 129.441 70.5182 129.777 70.8628L129.777 70.8627C130.173 71.2665 130.584 71.6562 131.008 72.0315C131.008 72.0315 131.008 72.0314 131.008 72.031C131.124 72.1308 131.238 72.2315 131.354 72.3308C131.354 72.331 131.354 72.331 131.354 72.331C131.638 72.5701 131.926 72.8049 132.22 73.033C132.219 73.0327 132.219 73.0319 132.219 73.0314C132.62 73.3448 133.034 73.6426 133.452 73.9324C133.452 73.9321 133.452 73.9319 133.452 73.9315C133.874 74.2212 134.305 74.4973 134.741 74.7642C134.741 74.7642 134.741 74.7642 134.741 74.7641C135.197 75.0387 135.66 75.301 136.13 75.5506C136.13 75.5504 136.13 75.5504 136.129 75.5503C136.64 75.8179 137.158 76.0731 137.684 76.3088C137.684 76.3088 137.683 76.3084 137.683 76.3081C138.291 76.5789 138.908 76.8283 139.533 77.0536C139.532 77.0529 139.531 77.0518 139.53 77.0509C140.433 77.3751 141.356 77.6449 142.291 77.8541C142.287 77.8522 142.283 77.8503 142.279 77.8482C143.826 78.1884 145.311 78.3572 146.83 78.2868C146.825 78.2882 146.819 78.2895 146.814 78.2907C147.581 78.2512 148.353 78.1619 149.097 77.9791C149.096 77.9793 149.096 77.9794 149.096 77.9798C149.549 77.8672 149.991 77.727 150.42 77.5471C150.419 77.5484 150.417 77.5497 150.415 77.5509C150.759 77.4056 151.094 77.24 151.412 77.0454C151.411 77.0461 151.41 77.047 151.409 77.0475C151.687 76.876 151.954 76.6869 152.203 76.4771C152.203 76.4771 152.203 76.4773 152.203 76.4775C152.437 76.2779 152.656 76.0623 152.856 75.8285C152.854 75.8306 152.853 75.8328 152.852 75.8347C152.866 75.817 152.882 75.8001 152.896 75.7823Z" fill="#DFDFE0"/>
<path d="M153.453 54.4773C153.474 54.438 153.495 54.3996 153.515 54.3595L153.515 54.3598C153.543 54.2981 153.572 54.2363 153.593 54.1715C153.593 54.1725 153.593 54.1735 153.593 54.1748C153.615 54.1101 153.635 54.0451 153.651 53.9785C153.651 53.979 153.651 53.9796 153.651 53.98C153.667 53.9113 153.681 53.842 153.69 53.7721C153.69 53.7728 153.69 53.7737 153.691 53.7742C153.7 53.7012 153.707 53.6279 153.709 53.5543C153.709 53.5551 153.709 53.5561 153.71 53.5571C153.712 53.4797 153.711 53.4027 153.707 53.3255L153.708 53.3256C153.702 53.232 153.692 53.1396 153.676 53.0469C153.677 53.056 153.68 53.0672 153.682 53.0761C153.669 52.991 153.652 52.9145 153.633 52.8262C153.534 52.2603 153.221 51.4638 152.966 51.0167C152.981 51.0435 152.996 51.0726 153.01 51.0966C152.914 50.9175 152.78 50.6978 152.702 50.5789C152.7 50.5755 152.697 50.5713 152.695 50.5676C152.501 50.2857 152.521 50.3094 152.252 49.9757L152.262 49.9871L152.243 49.9655L152.226 49.9462C152.163 49.8716 152.096 49.7955 152.03 49.7255L152.028 49.7232C151.951 49.6417 151.868 49.5612 151.785 49.4784L151.755 49.4501C151.702 49.3995 151.643 49.3457 151.579 49.2898L151.56 49.2718C151.425 49.1553 151.284 49.0405 151.106 48.9121L151.087 48.8982C151.017 48.847 150.919 48.783 150.847 48.7336L150.657 48.6158C150.662 48.6182 150.666 48.62 150.669 48.6223C150.593 48.575 150.512 48.5288 150.352 48.4406C150.186 48.3549 150.008 48.2658 149.829 48.1917L149.831 48.1928C149.644 48.1105 149.43 48.0381 149.238 47.9752C148.984 47.9043 148.962 47.8895 148.619 47.8168C148.621 47.8169 148.623 47.8173 148.625 47.8175L148.571 47.8063L148.548 47.8024C148.324 47.7553 148.013 47.7192 147.812 47.7045C147.802 47.7033 147.791 47.7023 147.782 47.7017L147.758 47.7005C147.152 47.6596 146.62 47.7038 146.054 47.8123C146.041 47.8152 146.03 47.8175 146.018 47.8203C145.927 47.838 145.852 47.8547 145.768 47.8783C145.665 47.9036 145.577 47.9272 145.499 47.9499C145.493 47.9518 145.485 47.9537 145.479 47.9553C145.47 47.9581 145.46 47.9615 145.451 47.9645C144.503 48.2104 143.735 48.8475 143.678 49.8775C143.679 49.8769 143.679 49.8765 143.679 49.8763C143.667 50.0609 143.681 50.2461 143.706 50.4295C143.706 50.4295 143.707 50.429 143.707 50.4288C143.732 50.578 143.767 50.7257 143.81 50.8714C143.81 50.8703 143.811 50.8692 143.811 50.868C143.847 50.9978 143.9 51.1214 143.948 51.2478C143.948 51.2473 143.948 51.2466 143.948 51.246C143.997 51.3606 144.054 51.4716 144.108 51.5846C144.109 51.5835 144.109 51.5824 144.109 51.5812C144.162 51.689 144.223 51.7923 144.286 51.8953L144.286 51.8951C144.346 51.9926 144.41 52.0879 144.475 52.1817L144.475 52.1816C144.54 52.2722 144.606 52.3617 144.675 52.4492C144.741 52.5331 144.809 52.6155 144.879 52.697C144.879 52.6968 144.879 52.6967 144.879 52.6967C144.948 52.7766 145.019 52.8543 145.091 52.9313L145.092 52.9311C145.125 52.9663 145.158 53.0012 145.192 53.0354L145.192 53.0356C145.231 53.0755 145.271 53.1147 145.311 53.154L145.311 53.1539C145.38 53.2219 145.452 53.2882 145.524 53.3542L145.524 53.3541C145.593 53.4171 145.664 53.4786 145.736 53.5399L145.736 53.5398C145.801 53.5955 145.867 53.649 145.934 53.7034L145.934 53.7033C145.996 53.7527 146.059 53.8013 146.123 53.8498L146.123 53.8497C146.155 53.8737 146.187 53.8974 146.219 53.9218C146.243 53.9389 146.267 53.9561 146.291 53.9741L146.291 53.974C146.348 54.0146 146.405 54.0547 146.462 54.0946C146.509 54.1255 146.555 54.157 146.601 54.1879C146.647 54.2178 146.694 54.2479 146.74 54.2779C146.786 54.3073 146.834 54.3364 146.88 54.3658L146.881 54.3655C146.921 54.3903 146.962 54.4141 147.002 54.4386C147.002 54.4386 147.002 54.4386 147.002 54.4384C147.042 54.4617 147.081 54.4847 147.121 54.5082C147.121 54.5082 147.121 54.508 147.121 54.5078C147.161 54.5303 147.201 54.5534 147.242 54.5761L147.242 54.5759C147.282 54.5974 147.322 54.6197 147.363 54.6418C147.363 54.6414 147.363 54.6413 147.363 54.6413C147.402 54.6618 147.441 54.6827 147.48 54.7035C147.48 54.7031 147.48 54.7031 147.48 54.7029C147.52 54.7231 147.559 54.7437 147.599 54.7637C147.599 54.7632 147.599 54.763 147.599 54.7627C147.639 54.7823 147.678 54.8026 147.718 54.8219C147.718 54.8217 147.718 54.8215 147.718 54.8211C147.761 54.8411 147.804 54.8622 147.847 54.8827C147.847 54.8827 147.847 54.8822 147.846 54.8821C147.895 54.9039 147.943 54.9259 147.991 54.9478L147.991 54.9474C148.04 54.9677 148.088 54.989 148.136 55.0105C148.136 55.0097 148.135 55.0089 148.134 55.0079C148.191 55.032 148.247 55.0558 148.304 55.079C148.304 55.079 148.303 55.0778 148.302 55.0772C148.397 55.1135 148.491 55.1498 148.586 55.1858C148.583 55.1838 148.58 55.181 148.577 55.1789C148.805 55.2608 149.034 55.3328 149.263 55.3934C149.261 55.3937 149.258 55.3943 149.255 55.3946C149.341 55.4151 149.425 55.4352 149.51 55.4547C149.508 55.4551 149.505 55.4555 149.503 55.4559C149.581 55.4719 149.657 55.4881 149.734 55.5031C149.733 55.5034 149.732 55.5039 149.731 55.5044C149.792 55.5146 149.853 55.5275 149.915 55.5367C149.914 55.5368 149.914 55.5373 149.913 55.5376C149.974 55.5456 150.035 55.5576 150.096 55.5647C150.095 55.5649 150.095 55.5654 150.094 55.5655C150.157 55.5726 150.22 55.581 150.283 55.5893L150.283 55.5894C150.347 55.5954 150.41 55.6013 150.475 55.6073L150.474 55.6075C150.544 55.6121 150.614 55.6174 150.684 55.6186C150.683 55.6192 150.683 55.6198 150.683 55.6203C150.767 55.6242 150.852 55.6262 150.936 55.6228C150.935 55.6235 150.934 55.6246 150.933 55.6254C151.03 55.6222 151.126 55.6189 151.221 55.6161C151.221 55.6163 151.221 55.6164 151.221 55.6164C151.334 55.6059 151.447 55.5962 151.559 55.5834L151.559 55.5835C151.684 55.5616 151.81 55.5423 151.933 55.5126C151.933 55.5128 151.933 55.513 151.933 55.513C152.049 55.4806 152.166 55.4522 152.277 55.4076C152.277 55.4086 152.276 55.4093 152.276 55.4102C152.373 55.3729 152.469 55.3331 152.562 55.2868C152.562 55.2872 152.562 55.2876 152.562 55.2879C152.642 55.247 152.72 55.2032 152.796 55.1551C152.796 55.1551 152.796 55.1555 152.796 55.1557C152.862 55.1099 152.93 55.0648 152.992 55.0125C152.992 55.013 152.992 55.0134 152.992 55.0138C153.049 54.9651 153.106 54.9156 153.159 54.8626C153.207 54.81 153.257 54.7584 153.3 54.7018C153.3 54.702 153.3 54.7023 153.3 54.7028C153.342 54.6488 153.38 54.5923 153.418 54.5355L153.418 54.5359C153.43 54.5164 153.441 54.4968 153.453 54.4773Z" fill="#E6E6E6"/>
<path d="M150.678 48.6276C150.675 48.6262 150.673 48.6253 150.671 48.6239C150.693 48.6372 150.715 48.6506 150.733 48.6619C150.717 48.6516 150.695 48.638 150.678 48.6276ZM148.632 47.82C148.63 47.8195 148.628 47.8195 148.626 47.8191L148.706 47.8359L148.632 47.82Z" fill="#C9C9C9"/>
<path d="M154.995 66.5674C155.815 65.2265 155.682 63.6345 155.351 62.1598C154.795 59.1292 154.222 56.0112 153.666 52.9848C153.955 54.4263 152.933 55.4272 151.555 55.5856C148.716 55.8819 145.39 54.0009 144.064 51.4931C143.359 50.1848 143.577 48.6057 145.112 48.0777C141.693 49.3539 138.218 50.5006 134.828 51.8485C130.099 54.2841 132.475 59.8889 135.374 62.8347C138.346 65.963 142.326 68.1824 146.57 68.9877C149.48 69.503 153.277 69.3546 154.995 66.5674Z" fill="#F2F2F2"/>
<path d="M151.533 55.4234C150.872 56.5685 149.408 56.9609 148.263 56.3C145.576 54.6029 147.845 50.6752 150.657 52.1535C151.802 52.8145 152.194 54.2786 151.533 55.4234Z" fill="#BABABA"/>
<path d="M100.807 102.896C100.84 102.849 100.873 102.802 100.908 102.755C100.982 102.66 101.061 102.565 101.144 102.471C101.172 102.441 101.2 102.41 101.229 102.379C101.272 102.333 101.316 102.287 101.361 102.242C101.397 102.205 101.432 102.171 101.468 102.136C101.504 102.102 101.541 102.068 101.578 102.033C101.62 101.995 101.663 101.958 101.706 101.92C101.739 101.892 101.772 101.864 101.805 101.837C101.855 101.796 101.905 101.756 101.956 101.717C101.985 101.694 102.014 101.671 102.044 101.649C102.122 101.59 102.202 101.531 102.284 101.475L114.059 93.4195L113.191 91.9059L101.416 99.9621C101.345 100.011 101.276 100.06 101.208 100.11C101.197 100.119 101.186 100.128 101.175 100.136C101.146 100.158 101.117 100.181 101.088 100.204C101.054 100.229 101.02 100.255 100.987 100.281C100.971 100.295 100.955 100.309 100.938 100.323C100.904 100.351 100.871 100.379 100.839 100.407C100.815 100.428 100.79 100.448 100.766 100.468C100.747 100.485 100.729 100.503 100.711 100.521C100.673 100.554 100.637 100.588 100.6 100.623C100.581 100.642 100.56 100.66 100.541 100.679C100.525 100.695 100.51 100.712 100.494 100.727C100.448 100.774 100.404 100.82 100.362 100.865C100.343 100.886 100.322 100.906 100.304 100.926C100.294 100.936 100.286 100.947 100.277 100.959C100.194 101.052 100.114 101.146 100.041 101.242C100.04 101.242 100.04 101.242 100.04 101.243C100.005 101.289 99.9736 101.335 99.9411 101.381C99.9189 101.412 99.8945 101.444 99.8739 101.474C99.8216 101.553 99.7727 101.631 99.7274 101.711L90.0446 118.592L90.9124 120.105L100.595 103.223C100.64 103.145 100.689 103.066 100.741 102.988C100.762 102.957 100.786 102.927 100.807 102.896Z" fill="#7EA6FF"/>
<path d="M114.056 93.4179L98.7501 120.104L90.9103 120.104L100.593 103.222C100.956 102.59 101.55 101.975 102.282 101.474L114.056 93.4179Z" fill="#598CFF"/>
<path d="M127.991 118.597C128.016 118.544 128.041 118.493 128.063 118.439C128.11 118.327 128.151 118.211 128.191 118.092C128.204 118.053 128.216 118.013 128.229 117.973C128.247 117.912 128.265 117.851 128.282 117.79C128.295 117.741 128.307 117.693 128.319 117.644C128.331 117.596 128.342 117.547 128.353 117.497C128.365 117.442 128.377 117.386 128.387 117.33C128.395 117.288 128.403 117.245 128.41 117.203C128.421 117.139 128.43 117.076 128.439 117.013C128.444 116.976 128.45 116.939 128.454 116.902C128.466 116.804 128.476 116.706 128.484 116.607L129.573 102.382L131.318 102.377L130.228 116.602C130.221 116.688 130.214 116.772 130.204 116.857C130.202 116.87 130.2 116.884 130.198 116.898C130.194 116.934 130.189 116.97 130.183 117.007C130.177 117.049 130.173 117.092 130.166 117.133C130.163 117.155 130.159 117.176 130.155 117.197C130.147 117.24 130.139 117.283 130.131 117.325C130.126 117.356 130.121 117.387 130.114 117.418C130.11 117.443 130.103 117.468 130.097 117.492C130.087 117.542 130.076 117.59 130.063 117.639C130.057 117.665 130.052 117.692 130.045 117.719C130.04 117.741 130.032 117.762 130.026 117.784C130.01 117.846 129.991 117.907 129.973 117.967C129.965 117.994 129.958 118.022 129.95 118.047C129.945 118.061 129.94 118.074 129.935 118.088C129.896 118.206 129.854 118.322 129.808 118.433C129.807 118.434 129.807 118.434 129.807 118.434C129.785 118.488 129.761 118.538 129.737 118.589C129.721 118.624 129.706 118.661 129.69 118.694C129.648 118.779 129.605 118.86 129.558 118.939L119.78 135.766L118.036 135.77L127.814 118.944C127.86 118.866 127.903 118.784 127.945 118.7C127.962 118.667 127.976 118.63 127.991 118.597Z" fill="#7EA6FF"/>
<path d="M129.574 102.384L114.116 128.982L118.036 135.772L127.815 118.945C128.181 118.315 128.416 117.493 128.484 116.608L129.574 102.384Z" fill="#598CFF"/>
<path d="M140.588 91.3057C139.104 90.4492 138.76 88.8816 139.374 87.5215C140.389 85.2696 144.209 81.9501 146.46 81.225C147.234 80.9758 147.912 81.0146 148.476 81.3401C148.832 81.5456 148.946 81.7241 149.12 82.103C149.652 83.2652 149.233 84.349 148.146 86.1306C145.606 90.2946 144.141 90.8102 143.431 91.1759L143.354 91.2158L143.273 91.2469C141.916 91.765 141.14 91.6244 140.588 91.3057Z" fill="#8F8F8F"/>
<path d="M141.106 91.4526C139.955 90.7886 139.862 89.263 140.357 88.1646C141.3 86.0758 145.161 82.5528 147.244 81.8819C147.834 81.6919 148.335 81.7117 148.732 81.941C148.97 82.0783 149.157 82.2853 149.274 82.5401C149.626 83.3094 149.297 84.3972 148.14 86.2941C145.696 90.3011 144.149 91.0983 143.488 91.4387L143.442 91.4617L143.395 91.4799C142.28 91.9061 141.534 91.7003 141.106 91.4526Z" fill="#636363"/>
<path d="M147.584 85.947C145.274 89.7339 143.887 90.4487 143.295 90.7541C142.242 91.1564 141.258 90.7858 140.928 90.216C140.668 89.7673 141.177 89.2092 141.419 88.6716C142.278 86.7679 145.787 82.9517 147.534 82.4732C147.938 82.3623 148.548 82.7911 148.667 83.0518C148.96 83.6918 147.925 85.3894 147.584 85.947Z" fill="#919191"/>
<path d="M147.017 85.6201C144.707 89.4071 143.32 90.1219 142.727 90.427C140.763 91.1781 140.33 89.5024 140.852 88.3446C141.91 86.0008 147.465 81.3369 148.1 82.7247C148.393 83.3649 147.358 85.0626 147.017 85.6201Z" fill="#74A1FF"/>
<path d="M118.599 78.4687C120.082 79.3254 121.612 78.8396 122.483 77.6281C123.925 75.622 124.89 70.6545 124.393 68.3426C124.222 67.548 123.849 66.98 123.284 66.6542C122.929 66.4487 122.717 66.4388 122.302 66.4784C121.03 66.5987 120.3 67.5033 119.301 69.3351C116.965 73.6173 117.251 75.1442 117.289 75.9416L117.294 76.0284L117.307 76.114C117.537 77.5476 118.047 78.1501 118.599 78.4687Z" fill="#8F8F8F"/>
<path d="M118.211 78.0969C119.361 78.7607 120.73 78.0792 121.433 77.1006C122.771 75.2402 123.891 70.1343 123.431 67.9949C123.3 67.3891 123.033 66.9651 122.635 66.7358C122.398 66.5985 122.125 66.54 121.846 66.5664C121.003 66.6461 120.226 67.4744 119.161 69.4252C116.914 73.5457 116.997 75.2844 117.032 76.0268L117.035 76.0777L117.043 76.1277C117.231 77.3064 117.782 77.849 118.211 78.0969Z" fill="#636363"/>
<path d="M119.739 69.7333C117.615 73.6279 117.69 75.1868 117.721 75.8522C117.899 76.9648 118.712 77.632 119.371 77.6326C119.889 77.6335 120.118 76.9135 120.462 76.4351C121.682 74.7389 123.232 69.7924 122.773 68.0404C122.667 67.6353 121.991 67.3212 121.705 67.3481C121.004 67.4142 120.052 69.1599 119.739 69.7333Z" fill="#919191"/>
<path d="M120.305 70.0562C118.18 73.9506 118.255 75.5095 118.287 76.1751C118.619 78.2524 120.286 77.789 121.027 76.7577C122.529 74.67 123.791 67.5275 122.271 67.6708C121.57 67.7371 120.618 69.4826 120.305 70.0562Z" fill="#74A1FF"/>
</svg>
